<?xml version="1.0" encoding="UTF-8" standalone="no"?>
<!-- Created with Inkscape (http://www.inkscape.org/) -->
<svg
   xmlns:dc="http://purl.org/dc/elements/1.1/"
   xmlns:cc="http://web.resource.org/cc/"
   xmlns:rdf="http://www.w3.org/1999/02/22-rdf-syntax-ns#"
   xmlns:svg="http://www.w3.org/2000/svg"
   xmlns="http://www.w3.org/2000/svg"
   xmlns:sodipodi="http://sodipodi.sourceforge.net/DTD/sodipodi-0.dtd"
   xmlns:inkscape="http://www.inkscape.org/namespaces/inkscape"
   width="640px"
   height="480px"
   id="svg5134"
   sodipodi:version="0.32"
   inkscape:version="0.44"
   sodipodi:docbase="D:\Users"
   sodipodi:docname="key1.svg">
  <defs
     id="defs5136" />
  <sodipodi:namedview
     id="base"
     pagecolor="#ffffff"
     bordercolor="#666666"
     borderopacity="1.0"
     inkscape:pageopacity="0.0"
     inkscape:pageshadow="2"
     inkscape:zoom="0.77472527"
     inkscape:cx="320"
     inkscape:cy="240"
     inkscape:current-layer="layer1"
     inkscape:document-units="px"
     inkscape:window-width="853"
     inkscape:window-height="573"
     inkscape:window-x="66"
     inkscape:window-y="87" />
  <metadata
     id="metadata5139">
    <rdf:RDF>
      <cc:Work
         rdf:about="">
        <dc:format>image/svg+xml</dc:format>
        <dc:type
           rdf:resource="http://purl.org/dc/dcmitype/StillImage" />
      </cc:Work>
    </rdf:RDF>
  </metadata>
  <g
     id="layer1"
     inkscape:label="Layer 1"
     inkscape:groupmode="layer">
    <path
       style="fill:black"
       d="M 290.62413,373.08238 L 290.62413,363.28533 L 286.83197,359.58238 L 283.03981,355.87943 L 271.83197,355.87943 L 260.62413,355.87943 L 260.62413,351.87943 L 260.62413,347.87943 L 265.62413,347.87943 C 269.95746,347.87943 270.62413,347.61276 270.62413,345.87943 C 270.62413,344.32387 269.95746,343.87943 267.62413,343.87943 C 265.62413,343.87943 264.62413,343.37943 264.62413,342.37943 C 264.62413,341.5461 263.73524,340.87943 262.62413,340.87943 C 260.80191,340.87943 260.62413,340.21276 260.62413,333.37943 C 260.62413,326.5461 260.80191,325.87943 262.62413,325.87943 C 263.73524,325.87943 264.62413,325.21276 264.62413,324.37943 C 264.62413,323.37943 265.62413,322.87943 267.62413,322.87943 C 269.95746,322.87943 270.62413,322.43499 270.62413,320.87943 C 270.62413,319.1461 269.95746,318.87943 265.62413,318.87943 L 260.62413,318.87943 L 260.62413,314.87943 L 260.62413,310.87943 L 272.42796,310.87943 L 284.2318,310.87943 L 287.42796,307.58182 L 290.62413,304.28422 L 290.62413,233.79636 L 290.62413,163.30851 L 272.12413,144.90639 L 253.62413,126.50427 L 253.62413,121.87335 C 253.62413,102.1662 272.3236,81.177598 292.75953,77.947111 C 314.84928,74.455193 332.94726,89.151506 341.81581,117.78286 L 343.79926,124.18628 L 323.7117,144.29179 L 303.62413,164.3973 L 303.62413,273.63836 L 303.62413,382.87943 L 297.12413,382.87943 L 290.62413,382.87943 L 290.62413,373.08238 z M 302.62413,273.13836 L 302.62413,164.3973 L 322.7117,144.29179 L 342.79926,124.18628 L 340.81581,117.78286 C 333.45551,94.020759 321.42783,81.395971 303.77237,78.900386 C 279.99419,75.539363 254.62413,97.694797 254.62413,121.82107 L 254.62413,126.39971 L 273.12413,144.87943 L 291.62413,163.35916 L 291.62413,272.61929 L 291.62413,381.87943 L 297.12413,381.87943 L 302.62413,381.87943 L 302.62413,273.13836 z M 281.71692,103.62943 C 289.57949,92.165283 297.87864,88.880763 305.68707,94.142868 C 309.15006,96.476576 314.53219,103.41989 314.59091,105.62943 C 314.61626,106.58326 310.46156,106.87943 297.05604,106.87943 L 279.48794,106.87943 L 281.71692,103.62943 z M 311.44905,101.66814 C 308.44752,96.231244 303.48105,92.879433 298.42659,92.879433 C 292.2919,92.879433 287.69611,95.961308 283.14147,103.12943 L 281.39411,105.87943 L 297.58404,105.87943 L 313.77398,105.87943 L 311.44905,101.66814 z M 290.62413,333.68326 L 290.62413,305.4871 L 287.12413,308.87943 L 283.62413,312.27176 L 283.62413,333.77799 L 283.62413,355.28422 L 286.8203,358.58182 C 288.57819,360.39551 290.15319,361.87943 290.3203,361.87943 C 290.48741,361.87943 290.62413,349.19115 290.62413,333.68326 z M 277.62413,333.37943 L 277.62413,311.87943 L 269.62413,311.87943 L 261.62413,311.87943 L 261.62413,314.87943 C 261.62413,317.81276 261.73524,317.87943 266.62413,317.87943 C 271.51302,317.87943 271.62413,317.9461 271.62413,320.87943 C 271.62413,323.5461 271.2908,323.87943 268.62413,323.87943 C 266.62413,323.87943 265.62413,324.37943 265.62413,325.37943 C 265.62413,326.21276 264.73524,326.87943 263.62413,326.87943 C 261.82926,326.87943 261.62413,327.5461 261.62413,333.37943 C 261.62413,339.21276 261.82926,339.87943 263.62413,339.87943 C 264.73524,339.87943 265.62413,340.5461 265.62413,341.37943 C 265.62413,342.37943 266.62413,342.87943 268.62413,342.87943 C 271.2908,342.87943 271.62413,343.21276 271.62413,345.87943 C 271.62413,348.81276 271.51302,348.87943 266.62413,348.87943 C 261.73524,348.87943 261.62413,348.9461 261.62413,351.87943 L 261.62413,354.87943 L 269.62413,354.87943 L 277.62413,354.87943 L 277.62413,333.37943 z M 282.62413,333.37943 C 282.62413,312.5461 282.56211,311.87943 280.62413,311.87943 C 278.68615,311.87943 278.62413,312.5461 278.62413,333.37943 C 278.62413,354.21276 278.68615,354.87943 280.62413,354.87943 C 282.56211,354.87943 282.62413,354.21276 282.62413,333.37943 z "
       id="path5185" />
  </g>
</svg>
