<?xml version="1.0" encoding="UTF-8" standalone="no"?>
<!-- Created with Inkscape (http://www.inkscape.org/) -->
<svg
   xmlns:dc="http://purl.org/dc/elements/1.1/"
   xmlns:cc="http://web.resource.org/cc/"
   xmlns:rdf="http://www.w3.org/1999/02/22-rdf-syntax-ns#"
   xmlns:svg="http://www.w3.org/2000/svg"
   xmlns="http://www.w3.org/2000/svg"
   xmlns:sodipodi="http://sodipodi.sourceforge.net/DTD/sodipodi-0.dtd"
   xmlns:inkscape="http://www.inkscape.org/namespaces/inkscape"
   width="744.09448819"
   height="1052.3622047"
   id="svg2"
   sodipodi:version="0.32"
   inkscape:version="0.45.1"
   sodipodi:docbase="C:\Documents and Settings\nandkumarr\Desktop"
   sodipodi:docname="rose.svg"
   inkscape:output_extension="org.inkscape.output.svg.inkscape">
  <defs
     id="defs4" />
  <sodipodi:namedview
     id="base"
     pagecolor="#ffffff"
     bordercolor="#666666"
     borderopacity="1.0"
     gridtolerance="10000"
     guidetolerance="10"
     objecttolerance="10"
     inkscape:pageopacity="0.0"
     inkscape:pageshadow="2"
     inkscape:zoom="0.74742978"
     inkscape:cx="360.00001"
     inkscape:cy="597.21093"
     inkscape:document-units="px"
     inkscape:current-layer="g2831"
     inkscape:window-width="1280"
     inkscape:window-height="934"
     inkscape:window-x="-4"
     inkscape:window-y="-4" />
  <metadata
     id="metadata7">
    <rdf:RDF>
      <cc:Work
         rdf:about="">
        <dc:format>image/svg+xml</dc:format>
        <dc:type
           rdf:resource="http://purl.org/dc/dcmitype/StillImage" />
      </cc:Work>
    </rdf:RDF>
  </metadata>
  <g
     inkscape:label="Layer 1"
     inkscape:groupmode="layer"
     id="layer1">
    <g
       id="g2831"
       transform="matrix(1.4927066e-2,0,0,8.4609889e-3,34.505549,12.546811)">
      <path
         id="path2502"
         d="M 21378.217,69877.454 L 21378.217,48052.577 L 19073.101,48052.577 L 19073.101,116567.55 L 21378.217,116567.55 L 21378.217,71239.932 L 21378.217,69877.454 z "
         style="fill:#009900;fill-opacity:1;fill-rule:nonzero;stroke:none" />
      <path
         id="path2504"
         d="M 21378.217,71239.932 L 21378.217,69877.454"
         style="fill:none;stroke:#009900;stroke-width:269.82965088px;stroke-linejoin:round;stroke-dasharray:none;stroke-opacity:1" />
      <path
         id="path2506"
         d="M 19073.101,48052.577 L 19073.101,116567.55 L 21378.217,116567.55 L 21378.217,71239.932"
         style="fill:none;stroke:#009900;stroke-width:269.82965088px;stroke-linejoin:round;stroke-dasharray:none;stroke-opacity:1" />
      <path
         id="path2508"
         d="M 21378.217,48052.577 L 19073.101,48052.577"
         style="fill:none;stroke:#009900;stroke-width:269.82965088px;stroke-linejoin:round;stroke-dasharray:none;stroke-opacity:1" />
      <path
         id="path2510"
         d="M 21378.217,69877.454 L 21378.217,48052.577"
         style="fill:none;stroke:#009900;stroke-width:269.82965088px;stroke-linejoin:round;stroke-dasharray:none;stroke-opacity:1" />
      <path
         id="path2512"
         d="M 36966.662,52329.243 L 36218.848,53187.1 L 22580.887,69107.906 C 23066.58,69965.763 23937.744,70306.382 25178.961,70066.687 L 24862.875,68388.821 L 25880.518,69877.454 C 26859.614,69549.45 27908.095,68931.289 29041.379,67985.123 L 28069.993,66345.104 L 29704.389,67417.424 C 30028.185,67102.036 30367.399,66761.416 30714.323,66408.181 C 31269.401,65853.098 31785.932,65260.168 32287.045,64654.622 L 31824.48,62181.977 L 32818.995,63960.768 C 33744.125,62711.829 34545.904,61399.814 35239.752,60024.72 L 35170.367,57350.227 L 35756.283,58914.553 C 36488.678,56820.374 36874.149,55369.587 36912.696,54549.578 C 36935.824,53729.568 36951.243,52972.636 36966.662,52329.243 z "
         style="fill:#00cc00;fill-opacity:1;fill-rule:nonzero;stroke:none" />
      <path
         id="path2514"
         d="M 36218.848,53187.1 L 36966.662,52329.243 C 36450.131,51685.851 35794.83,51484.002 35008.469,51698.467 L 33998.536,53565.566 L 34345.459,51748.929 C 34175.852,51698.467 33998.536,51660.62 33821.219,51635.389 C 33428.039,51572.311 32996.311,51610.158 32549.165,51812.006 L 32140.566,53767.414 L 31839.898,52165.241 C 31307.948,52480.63 30752.87,52922.174 30151.536,53527.719 L 29241.824,56580.679 L 29503.945,54196.343 C 29295.79,54398.191 29103.055,54637.886 28902.61,54890.197 C 28586.524,55243.432 28278.147,55596.667 27992.899,55975.133 L 27229.666,58662.242 L 27391.564,56769.912 C 26389.34,58107.159 25556.722,59419.175 24893.712,60731.19 L 25286.893,62320.748 L 24377.181,61828.742 C 23398.085,64074.307 22812.169,66118.024 22619.434,67972.508 L 36218.848,53187.1 z "
         style="fill:#00cc00;fill-opacity:1;fill-rule:nonzero;stroke:none" />
      <path
         id="path2516"
         d="M 21555.534,70154.996 L 22580.887,69107.906 L 36218.848,53187.1 L 22619.434,67972.508 L 21393.636,69259.293 L 21555.534,70154.996 z "
         style="fill:#009900;fill-opacity:1;fill-rule:nonzero;stroke:none" />
      <path
         id="path2518"
         d="M 36966.662,52329.243 C 36450.131,51685.851 35794.83,51484.002 35008.469,51698.467 L 33998.536,53565.566 L 34345.459,51748.929 C 34175.852,51698.467 33998.536,51660.62 33821.219,51635.389 C 33428.039,51572.311 32996.311,51610.158 32549.165,51812.006 L 32140.566,53767.414 L 31839.898,52165.241 C 31307.948,52480.63 30752.87,52922.174 30151.536,53527.719 L 29241.824,56580.679 L 29503.945,54196.343 C 29295.79,54398.191 29103.055,54637.886 28902.61,54890.197 C 28586.524,55243.432 28278.147,55596.667 27992.899,55975.133 L 27229.666,58662.242 L 27391.564,56769.912 C 26389.34,58107.159 25556.722,59419.175 24893.712,60731.19 L 25286.893,62320.748 L 24377.181,61828.742 C 23398.085,64074.307 22812.169,66118.024 22619.434,67972.508"
         style="fill:none;stroke:#009900;stroke-width:269.82965088px;stroke-linejoin:round;stroke-dasharray:none;stroke-opacity:1" />
      <path
         id="path2520"
         d="M 36966.662,52329.243 C 36951.243,52972.636 36935.824,53729.568 36912.696,54549.578 C 36874.149,55369.587 36488.678,56820.374 35756.283,58914.553 L 35170.367,57350.227 L 35239.752,60024.72 C 34545.904,61399.814 33744.125,62711.829 32818.995,63960.768 L 31824.48,62181.977 L 32287.045,64654.622 C 31785.932,65260.168 31269.401,65853.098 30714.323,66408.181 C 30367.399,66761.416 30028.185,67102.036 29704.389,67417.424 L 28069.993,66345.104 L 29041.379,67985.123 C 27908.095,68931.289 26859.614,69549.45 25880.518,69877.454 L 24862.875,68388.821 L 25178.961,70066.687 C 23937.744,70306.382 23066.58,69965.763 22580.887,69107.906"
         style="fill:none;stroke:#009900;stroke-width:269.82965088px;stroke-linejoin:round;stroke-dasharray:none;stroke-opacity:1" />
      <path
         id="path2522"
         d="M 22619.434,67972.508 L 21393.636,69259.293 L 21555.534,70154.996 L 22580.887,69107.906"
         style="fill:none;stroke:#009900;stroke-width:269.82965088px;stroke-linejoin:round;stroke-dasharray:none;stroke-opacity:1" />
      <path
         id="path2524"
         d="M 36218.848,53187.1 L 22619.434,67972.508"
         style="fill:none;stroke:#009900;stroke-width:269.82965088px;stroke-linejoin:round;stroke-dasharray:none;stroke-opacity:1" />
      <path
         id="path2526"
         d="M 22580.887,69107.906 L 36218.848,53187.1"
         style="fill:none;stroke:#009900;stroke-width:269.82965088px;stroke-linejoin:round;stroke-dasharray:none;stroke-opacity:1" />
      <path
         id="path2528"
         d="M 36218.848,53187.1 L 36966.662,52329.243"
         style="fill:none;stroke:#009900;stroke-width:269.82965088px;stroke-linejoin:round;stroke-dasharray:none;stroke-opacity:1" />
      <path
         id="path2530"
         d="M 3523.2043,75314.75 L 4271.0178,76172.606 L 17908.979,92093.413 C 17423.286,92951.269 16552.122,93291.889 15310.905,93052.194 L 15626.991,91374.327 L 14609.348,92862.96 C 13630.252,92534.957 12581.771,91916.795 11448.486,90970.63 L 12419.873,89330.61 L 10785.476,90402.931 C 10461.681,90087.543 10122.466,89746.923 9775.5426,89393.688 C 9220.4645,88838.604 8703.9335,88245.674 8202.8213,87640.129 L 8665.3864,85167.484 L 7670.8714,86946.274 C 6745.7412,85697.336 5943.9617,84385.32 5250.114,83010.227 L 5319.4988,80335.733 L 4733.583,81900.06 C 4001.1882,79805.881 3615.7173,78355.094 3577.1702,77535.084 C 3554.0419,76715.074 3538.6231,75958.142 3523.2043,75314.75 z "
         style="fill:#00cc00;fill-opacity:1;fill-rule:nonzero;stroke:none" />
      <path
         id="path2532"
         d="M 4271.0178,76172.606 L 3523.2043,75314.75 C 4039.7353,74671.358 4695.0359,74469.509 5481.3965,74683.973 L 6491.3304,76551.072 L 6144.4065,74734.435 C 6314.0137,74683.973 6491.3304,74646.126 6668.647,74620.895 C 7061.8273,74557.818 7493.5548,74595.664 7940.701,74797.513 L 8349.3002,76752.921 L 8649.9675,75150.748 C 9181.9174,75466.136 9736.9956,75907.68 10338.33,76513.226 L 11248.042,79566.186 L 10985.921,77181.849 C 11194.076,77383.698 11386.811,77623.393 11587.256,77875.704 C 11903.342,78228.939 12211.719,78582.174 12496.967,78960.64 L 13260.2,81647.749 L 13098.302,79755.419 C 14100.526,81092.665 14933.144,82404.681 15596.154,83716.697 L 15202.973,85306.254 L 16112.685,84814.249 C 17091.781,87059.814 17677.697,89103.531 17870.432,90958.015 L 4271.0178,76172.606 z "
         style="fill:#00cc00;fill-opacity:1;fill-rule:nonzero;stroke:none" />
      <path
         id="path2534"
         d="M 18934.332,93140.502 L 17908.979,92093.413 L 4271.0178,76172.606 L 17870.432,90958.015 L 19096.23,92244.799 L 18934.332,93140.502 z "
         style="fill:#009900;fill-opacity:1;fill-rule:nonzero;stroke:none" />
      <path
         id="path2536"
         d="M 3523.2043,75314.75 C 4039.7353,74671.358 4695.0359,74469.509 5481.3965,74683.973 L 6491.3304,76551.072 L 6144.4065,74734.435 C 6314.0137,74683.973 6491.3304,74646.126 6668.647,74620.895 C 7061.8273,74557.818 7493.5548,74595.664 7940.701,74797.513 L 8349.3002,76752.921 L 8649.9675,75150.748 C 9181.9174,75466.136 9736.9956,75907.68 10338.33,76513.226 L 11248.042,79566.186 L 10985.921,77181.849 C 11194.076,77383.698 11386.811,77623.393 11587.256,77875.704 C 11903.342,78228.939 12211.719,78582.174 12496.967,78960.64 L 13260.2,81647.749 L 13098.302,79755.419 C 14100.526,81092.665 14933.144,82404.681 15596.154,83716.697 L 15202.973,85306.254 L 16112.685,84814.249 C 17091.781,87059.814 17677.697,89103.531 17870.432,90958.015"
         style="fill:none;stroke:#009900;stroke-width:269.82965088px;stroke-linejoin:round;stroke-dasharray:none;stroke-opacity:1" />
      <path
         id="path2538"
         d="M 3523.2043,75314.75 C 3538.6231,75958.142 3554.0419,76715.074 3577.1702,77535.084 C 3615.7173,78355.094 4001.1882,79805.881 4733.583,81900.06 L 5319.4988,80335.733 L 5250.114,83010.227 C 5943.9617,84385.32 6745.7412,85697.336 7670.8714,86946.274 L 8665.3864,85167.484 L 8202.8213,87640.129 C 8703.9335,88245.674 9220.4645,88838.604 9775.5426,89393.688 C 10122.466,89746.923 10461.681,90087.543 10785.476,90402.931 L 12419.873,89330.61 L 11448.486,90970.63 C 12581.771,91916.795 13630.252,92534.957 14609.348,92862.96 L 15626.991,91374.327 L 15310.905,93052.194 C 16552.122,93291.889 17423.286,92951.269 17908.979,92093.413"
         style="fill:none;stroke:#009900;stroke-width:269.82965088px;stroke-linejoin:round;stroke-dasharray:none;stroke-opacity:1" />
      <path
         id="path2540"
         d="M 17870.432,90958.015 L 19096.23,92244.799 L 18934.332,93140.502 L 17908.979,92093.413"
         style="fill:none;stroke:#009900;stroke-width:269.82965088px;stroke-linejoin:round;stroke-dasharray:none;stroke-opacity:1" />
      <path
         id="path2542"
         d="M 4271.0178,76172.606 L 17870.432,90958.015"
         style="fill:none;stroke:#009900;stroke-width:269.82965088px;stroke-linejoin:round;stroke-dasharray:none;stroke-opacity:1" />
      <path
         id="path2544"
         d="M 17908.979,92093.413 L 4271.0178,76172.606"
         style="fill:none;stroke:#009900;stroke-width:269.82965088px;stroke-linejoin:round;stroke-dasharray:none;stroke-opacity:1" />
      <path
         id="path2546"
         d="M 4271.0178,76172.606 L 3523.2043,75314.75"
         style="fill:none;stroke:#009900;stroke-width:269.82965088px;stroke-linejoin:round;stroke-dasharray:none;stroke-opacity:1" />
      <path
         id="path2548"
         d="M 21385.927,52720.325 L 21385.927,55508.358 C 21964.133,54208.958 22534.63,52922.174 23089.708,51610.158 L 21385.927,52720.325 z "
         style="fill:#009900;fill-opacity:1;fill-rule:nonzero;stroke:none" />
      <path
         id="path2550"
         d="M 21385.927,55508.358 C 21964.133,54208.958 22534.63,52922.174 23089.708,51610.158 L 21385.927,52720.325 L 21385.927,55508.358"
         style="fill:none;stroke:#009900;stroke-width:269.82965088px;stroke-linejoin:round;stroke-dasharray:none;stroke-opacity:1" />
      <path
         id="path2552"
         d="M 21385.927,58813.629 L 21385.927,61601.662 C 21964.133,60302.262 22534.63,59015.477 23089.708,57703.462 L 21385.927,58813.629 z "
         style="fill:#009900;fill-opacity:1;fill-rule:nonzero;stroke:none" />
      <path
         id="path2554"
         d="M 21385.927,61601.662 C 21964.133,60302.262 22534.63,59015.477 23089.708,57703.462 L 21385.927,58813.629 L 21385.927,61601.662"
         style="fill:none;stroke:#009900;stroke-width:269.82965088px;stroke-linejoin:round;stroke-dasharray:none;stroke-opacity:1" />
      <path
         id="path2556"
         d="M 21385.927,71832.862 L 21385.927,74620.895 C 21964.133,73321.495 22534.63,72034.711 23089.708,70722.695 L 21385.927,71832.862 z "
         style="fill:#009900;fill-opacity:1;fill-rule:nonzero;stroke:none" />
      <path
         id="path2558"
         d="M 21385.927,74620.895 C 21964.133,73321.495 22534.63,72034.711 23089.708,70722.695 L 21385.927,71832.862 L 21385.927,74620.895"
         style="fill:none;stroke:#009900;stroke-width:269.82965088px;stroke-linejoin:round;stroke-dasharray:none;stroke-opacity:1" />
      <path
         id="path2560"
         d="M 21324.252,83073.305 L 21324.252,85861.338 C 21902.458,84561.938 22472.955,83275.153 23028.033,81963.137 L 21324.252,83073.305 z "
         style="fill:#009900;fill-opacity:1;fill-rule:nonzero;stroke:none" />
      <path
         id="path2562"
         d="M 21324.252,85861.338 C 21902.458,84561.938 22472.955,83275.153 23028.033,81963.137 L 21324.252,83073.305 L 21324.252,85861.338"
         style="fill:none;stroke:#009900;stroke-width:269.82965088px;stroke-linejoin:round;stroke-dasharray:none;stroke-opacity:1" />
      <path
         id="path2564"
         d="M 21254.867,93203.58 L 21254.867,95991.613 C 21833.073,94692.213 22403.57,93405.429 22958.648,92093.413 L 21254.867,93203.58 z "
         style="fill:#009900;fill-opacity:1;fill-rule:nonzero;stroke:none" />
      <path
         id="path2566"
         d="M 21254.867,95991.613 C 21833.073,94692.213 22403.57,93405.429 22958.648,92093.413 L 21254.867,93203.58 L 21254.867,95991.613"
         style="fill:none;stroke:#009900;stroke-width:269.82965088px;stroke-linejoin:round;stroke-dasharray:none;stroke-opacity:1" />
      <path
         id="path2568"
         d="M 21324.252,104658.49 L 21324.252,107446.52 C 21902.458,106147.12 22472.955,104860.34 23028.033,103548.32 L 21324.252,104658.49 z "
         style="fill:#009900;fill-opacity:1;fill-rule:nonzero;stroke:none" />
      <path
         id="path2570"
         d="M 21324.252,107446.52 C 21902.458,106147.12 22472.955,104860.34 23028.033,103548.32 L 21324.252,104658.49 L 21324.252,107446.52"
         style="fill:none;stroke:#009900;stroke-width:269.82965088px;stroke-linejoin:round;stroke-dasharray:none;stroke-opacity:1" />
      <path
         id="path2572"
         d="M 19003.717,109780.39 L 19003.717,112568.43 C 18425.51,111269.03 17855.013,109982.24 17299.935,108670.23 L 19003.717,109780.39 z "
         style="fill:#009900;fill-opacity:1;fill-rule:nonzero;stroke:none" />
      <path
         id="path2574"
         d="M 19003.717,112568.43 C 18425.51,111269.03 17855.013,109982.24 17299.935,108670.23 L 19003.717,109780.39 L 19003.717,112568.43"
         style="fill:none;stroke:#009900;stroke-width:269.82965088px;stroke-linejoin:round;stroke-dasharray:none;stroke-opacity:1" />
      <path
         id="path2576"
         d="M 19003.717,98918.418 L 19003.717,101706.45 C 18425.51,100407.05 17855.013,99120.266 17299.935,97808.251 L 19003.717,98918.418 z "
         style="fill:#009900;fill-opacity:1;fill-rule:nonzero;stroke:none" />
      <path
         id="path2578"
         d="M 19003.717,101706.45 C 18425.51,100407.05 17855.013,99120.266 17299.935,97808.251 L 19003.717,98918.418 L 19003.717,101706.45"
         style="fill:none;stroke:#009900;stroke-width:269.82965088px;stroke-linejoin:round;stroke-dasharray:none;stroke-opacity:1" />
      <path
         id="path2580"
         d="M 19003.717,84902.557 L 19003.717,87690.591 C 18425.51,86391.191 17855.013,85104.406 17299.935,83792.39 L 19003.717,84902.557 z "
         style="fill:#009900;fill-opacity:1;fill-rule:nonzero;stroke:none" />
      <path
         id="path2582"
         d="M 19003.717,87690.591 C 18425.51,86391.191 17855.013,85104.406 17299.935,83792.39 L 19003.717,84902.557 L 19003.717,87690.591"
         style="fill:none;stroke:#009900;stroke-width:269.82965088px;stroke-linejoin:round;stroke-dasharray:none;stroke-opacity:1" />
      <path
         id="path2584"
         d="M 19003.717,76778.152 L 19003.717,79566.186 C 18425.51,78266.785 17855.013,76980.001 17299.935,75667.985 L 19003.717,76778.152 z "
         style="fill:#009900;fill-opacity:1;fill-rule:nonzero;stroke:none" />
      <path
         id="path2586"
         d="M 19003.717,79566.186 C 18425.51,78266.785 17855.013,76980.001 17299.935,75667.985 L 19003.717,76778.152 L 19003.717,79566.186"
         style="fill:none;stroke:#009900;stroke-width:269.82965088px;stroke-linejoin:round;stroke-dasharray:none;stroke-opacity:1" />
      <path
         id="path2588"
         d="M 19003.717,66988.496 L 19003.717,69776.53 C 18425.51,68477.129 17855.013,67190.345 17299.935,65878.329 L 19003.717,66988.496 z "
         style="fill:#009900;fill-opacity:1;fill-rule:nonzero;stroke:none" />
      <path
         id="path2590"
         d="M 19003.717,69776.53 C 18425.51,68477.129 17855.013,67190.345 17299.935,65878.329 L 19003.717,66988.496 L 19003.717,69776.53"
         style="fill:none;stroke:#009900;stroke-width:269.82965088px;stroke-linejoin:round;stroke-dasharray:none;stroke-opacity:1" />
      <path
         id="path2592"
         d="M 19003.717,54928.044 L 19003.717,57716.077 C 18425.51,56416.677 17855.013,55129.892 17299.935,53817.877 L 19003.717,54928.044 z "
         style="fill:#009900;fill-opacity:1;fill-rule:nonzero;stroke:none" />
      <path
         id="path2594"
         d="M 19003.717,57716.077 C 18425.51,56416.677 17855.013,55129.892 17299.935,53817.877 L 19003.717,54928.044 L 19003.717,57716.077"
         style="fill:none;stroke:#009900;stroke-width:269.82965088px;stroke-linejoin:round;stroke-dasharray:none;stroke-opacity:1" />
      <path
         id="path2596"
         d="M 21385.927,58813.629 L 21385.927,61601.662 C 21964.133,60302.262 22534.63,59015.477 23089.708,57703.462 L 21385.927,58813.629 z "
         style="fill:#009900;fill-opacity:1;fill-rule:nonzero;stroke:none" />
      <path
         id="path2598"
         d="M 21385.927,61601.662 C 21964.133,60302.262 22534.63,59015.477 23089.708,57703.462 L 21385.927,58813.629 L 21385.927,61601.662"
         style="fill:none;stroke:#009900;stroke-width:269.82965088px;stroke-linejoin:round;stroke-dasharray:none;stroke-opacity:1" />
      <path
         id="path2600"
         d="M 21385.927,71832.862 L 21385.927,74620.895 C 21964.133,73321.495 22534.63,72034.711 23089.708,70722.695 L 21385.927,71832.862 z "
         style="fill:#009900;fill-opacity:1;fill-rule:nonzero;stroke:none" />
      <path
         id="path2602"
         d="M 21385.927,74620.895 C 21964.133,73321.495 22534.63,72034.711 23089.708,70722.695 L 21385.927,71832.862 L 21385.927,74620.895"
         style="fill:none;stroke:#009900;stroke-width:269.82965088px;stroke-linejoin:round;stroke-dasharray:none;stroke-opacity:1" />
      <path
         id="path2604"
         d="M 21324.252,83073.305 L 21324.252,85861.338 C 21902.458,84561.938 22472.955,83275.153 23028.033,81963.137 L 21324.252,83073.305 z "
         style="fill:#009900;fill-opacity:1;fill-rule:nonzero;stroke:none" />
      <path
         id="path2606"
         d="M 21324.252,85861.338 C 21902.458,84561.938 22472.955,83275.153 23028.033,81963.137 L 21324.252,83073.305 L 21324.252,85861.338"
         style="fill:none;stroke:#009900;stroke-width:269.82965088px;stroke-linejoin:round;stroke-dasharray:none;stroke-opacity:1" />
      <path
         id="path2608"
         d="M 21254.867,93203.58 L 21254.867,95991.613 C 21833.073,94692.213 22403.57,93405.429 22958.648,92093.413 L 21254.867,93203.58 z "
         style="fill:#009900;fill-opacity:1;fill-rule:nonzero;stroke:none" />
      <path
         id="path2610"
         d="M 21254.867,95991.613 C 21833.073,94692.213 22403.57,93405.429 22958.648,92093.413 L 21254.867,93203.58 L 21254.867,95991.613"
         style="fill:none;stroke:#009900;stroke-width:269.82965088px;stroke-linejoin:round;stroke-dasharray:none;stroke-opacity:1" />
      <path
         id="path2612"
         d="M 21324.252,104658.49 L 21324.252,107446.52 C 21902.458,106147.12 22472.955,104860.34 23028.033,103548.32 L 21324.252,104658.49 z "
         style="fill:#009900;fill-opacity:1;fill-rule:nonzero;stroke:none" />
      <path
         id="path2614"
         d="M 21324.252,107446.52 C 21902.458,106147.12 22472.955,104860.34 23028.033,103548.32 L 21324.252,104658.49 L 21324.252,107446.52"
         style="fill:none;stroke:#009900;stroke-width:269.82965088px;stroke-linejoin:round;stroke-dasharray:none;stroke-opacity:1" />
      <path
         id="path2616"
         d="M 19003.717,109780.39 L 19003.717,112568.43 C 18425.51,111269.03 17855.013,109982.24 17299.935,108670.23 L 19003.717,109780.39 z "
         style="fill:#009900;fill-opacity:1;fill-rule:nonzero;stroke:none" />
      <path
         id="path2618"
         d="M 19003.717,112568.43 C 18425.51,111269.03 17855.013,109982.24 17299.935,108670.23 L 19003.717,109780.39 L 19003.717,112568.43"
         style="fill:none;stroke:#009900;stroke-width:269.82965088px;stroke-linejoin:round;stroke-dasharray:none;stroke-opacity:1" />
      <path
         id="path2620"
         d="M 19003.717,98918.418 L 19003.717,101706.45 C 18425.51,100407.05 17855.013,99120.266 17299.935,97808.251 L 19003.717,98918.418 z "
         style="fill:#009900;fill-opacity:1;fill-rule:nonzero;stroke:none" />
      <path
         id="path2622"
         d="M 19003.717,101706.45 C 18425.51,100407.05 17855.013,99120.266 17299.935,97808.251 L 19003.717,98918.418 L 19003.717,101706.45"
         style="fill:none;stroke:#009900;stroke-width:269.82965088px;stroke-linejoin:round;stroke-dasharray:none;stroke-opacity:1" />
      <path
         id="path2624"
         d="M 19003.717,84902.557 L 19003.717,87690.591 C 18425.51,86391.191 17855.013,85104.406 17299.935,83792.39 L 19003.717,84902.557 z "
         style="fill:#009900;fill-opacity:1;fill-rule:nonzero;stroke:none" />
      <path
         id="path2626"
         d="M 19003.717,87690.591 C 18425.51,86391.191 17855.013,85104.406 17299.935,83792.39 L 19003.717,84902.557 L 19003.717,87690.591"
         style="fill:none;stroke:#009900;stroke-width:269.82965088px;stroke-linejoin:round;stroke-dasharray:none;stroke-opacity:1" />
      <path
         id="path2628"
         d="M 19003.717,76778.152 L 19003.717,79566.186 C 18425.51,78266.785 17855.013,76980.001 17299.935,75667.985 L 19003.717,76778.152 z "
         style="fill:#009900;fill-opacity:1;fill-rule:nonzero;stroke:none" />
      <path
         id="path2630"
         d="M 19003.717,79566.186 C 18425.51,78266.785 17855.013,76980.001 17299.935,75667.985 L 19003.717,76778.152 L 19003.717,79566.186"
         style="fill:none;stroke:#009900;stroke-width:269.82965088px;stroke-linejoin:round;stroke-dasharray:none;stroke-opacity:1" />
      <path
         id="path2632"
         d="M 19003.717,66988.496 L 19003.717,69776.53 C 18425.51,68477.129 17855.013,67190.345 17299.935,65878.329 L 19003.717,66988.496 z "
         style="fill:#009900;fill-opacity:1;fill-rule:nonzero;stroke:none" />
      <path
         id="path2634"
         d="M 19003.717,69776.53 C 18425.51,68477.129 17855.013,67190.345 17299.935,65878.329 L 19003.717,66988.496 L 19003.717,69776.53"
         style="fill:none;stroke:#009900;stroke-width:269.82965088px;stroke-linejoin:round;stroke-dasharray:none;stroke-opacity:1" />
      <path
         id="path2636"
         d="M 19003.717,54928.044 L 19003.717,57716.077 C 18425.51,56416.677 17855.013,55129.892 17299.935,53817.877 L 19003.717,54928.044 z "
         style="fill:#009900;fill-opacity:1;fill-rule:nonzero;stroke:none" />
      <path
         id="path2638"
         d="M 19003.717,57716.077 C 18425.51,56416.677 17855.013,55129.892 17299.935,53817.877 L 19003.717,54928.044 L 19003.717,57716.077"
         style="fill:none;stroke:#009900;stroke-width:269.82965088px;stroke-linejoin:round;stroke-dasharray:none;stroke-opacity:1" />
      <path
         id="path2640"
         d="M 21385.927,58813.629 L 21385.927,61601.662 C 21964.133,60302.262 22534.63,59015.477 23089.708,57703.462 L 21385.927,58813.629 z "
         style="fill:#009900;fill-opacity:1;fill-rule:nonzero;stroke:none" />
      <path
         id="path2642"
         d="M 21385.927,61601.662 C 21964.133,60302.262 22534.63,59015.477 23089.708,57703.462 L 21385.927,58813.629 L 21385.927,61601.662"
         style="fill:none;stroke:#009900;stroke-width:269.82965088px;stroke-linejoin:round;stroke-dasharray:none;stroke-opacity:1" />
      <path
         id="path2644"
         d="M 21385.927,71832.862 L 21385.927,74620.895 C 21964.133,73321.495 22534.63,72034.711 23089.708,70722.695 L 21385.927,71832.862 z "
         style="fill:#009900;fill-opacity:1;fill-rule:nonzero;stroke:none" />
      <path
         id="path2646"
         d="M 21385.927,74620.895 C 21964.133,73321.495 22534.63,72034.711 23089.708,70722.695 L 21385.927,71832.862 L 21385.927,74620.895"
         style="fill:none;stroke:#009900;stroke-width:269.82965088px;stroke-linejoin:round;stroke-dasharray:none;stroke-opacity:1" />
      <path
         id="path2648"
         d="M 21324.252,83073.305 L 21324.252,85861.338 C 21902.458,84561.938 22472.955,83275.153 23028.033,81963.137 L 21324.252,83073.305 z "
         style="fill:#009900;fill-opacity:1;fill-rule:nonzero;stroke:none" />
      <path
         id="path2650"
         d="M 21324.252,85861.338 C 21902.458,84561.938 22472.955,83275.153 23028.033,81963.137 L 21324.252,83073.305 L 21324.252,85861.338"
         style="fill:none;stroke:#009900;stroke-width:269.82965088px;stroke-linejoin:round;stroke-dasharray:none;stroke-opacity:1" />
      <path
         id="path2652"
         d="M 21254.867,93203.58 L 21254.867,95991.613 C 21833.073,94692.213 22403.57,93405.429 22958.648,92093.413 L 21254.867,93203.58 z "
         style="fill:#009900;fill-opacity:1;fill-rule:nonzero;stroke:none" />
      <path
         id="path2654"
         d="M 21254.867,95991.613 C 21833.073,94692.213 22403.57,93405.429 22958.648,92093.413 L 21254.867,93203.58 L 21254.867,95991.613"
         style="fill:none;stroke:#009900;stroke-width:269.82965088px;stroke-linejoin:round;stroke-dasharray:none;stroke-opacity:1" />
      <path
         id="path2656"
         d="M 21324.252,104658.49 L 21324.252,107446.52 C 21902.458,106147.12 22472.955,104860.34 23028.033,103548.32 L 21324.252,104658.49 z "
         style="fill:#009900;fill-opacity:1;fill-rule:nonzero;stroke:none" />
      <path
         id="path2658"
         d="M 21324.252,107446.52 C 21902.458,106147.12 22472.955,104860.34 23028.033,103548.32 L 21324.252,104658.49 L 21324.252,107446.52"
         style="fill:none;stroke:#009900;stroke-width:269.82965088px;stroke-linejoin:round;stroke-dasharray:none;stroke-opacity:1" />
      <path
         id="path2660"
         d="M 19003.717,109780.39 L 19003.717,112568.43 C 18425.51,111269.03 17855.013,109982.24 17299.935,108670.23 L 19003.717,109780.39 z "
         style="fill:#009900;fill-opacity:1;fill-rule:nonzero;stroke:none" />
      <path
         id="path2662"
         d="M 19003.717,112568.43 C 18425.51,111269.03 17855.013,109982.24 17299.935,108670.23 L 19003.717,109780.39 L 19003.717,112568.43"
         style="fill:none;stroke:#009900;stroke-width:269.82965088px;stroke-linejoin:round;stroke-dasharray:none;stroke-opacity:1" />
      <path
         id="path2664"
         d="M 19003.717,98918.418 L 19003.717,101706.45 C 18425.51,100407.05 17855.013,99120.266 17299.935,97808.251 L 19003.717,98918.418 z "
         style="fill:#009900;fill-opacity:1;fill-rule:nonzero;stroke:none" />
      <path
         id="path2666"
         d="M 19003.717,101706.45 C 18425.51,100407.05 17855.013,99120.266 17299.935,97808.251 L 19003.717,98918.418 L 19003.717,101706.45"
         style="fill:none;stroke:#009900;stroke-width:269.82965088px;stroke-linejoin:round;stroke-dasharray:none;stroke-opacity:1" />
      <path
         id="path2668"
         d="M 19003.717,84902.557 L 19003.717,87690.591 C 18425.51,86391.191 17855.013,85104.406 17299.935,83792.39 L 19003.717,84902.557 z "
         style="fill:#009900;fill-opacity:1;fill-rule:nonzero;stroke:none" />
      <path
         id="path2670"
         d="M 19003.717,87690.591 C 18425.51,86391.191 17855.013,85104.406 17299.935,83792.39 L 19003.717,84902.557 L 19003.717,87690.591"
         style="fill:none;stroke:#009900;stroke-width:269.82965088px;stroke-linejoin:round;stroke-dasharray:none;stroke-opacity:1" />
      <path
         id="path2672"
         d="M 19003.717,76778.152 L 19003.717,79566.186 C 18425.51,78266.785 17855.013,76980.001 17299.935,75667.985 L 19003.717,76778.152 z "
         style="fill:#009900;fill-opacity:1;fill-rule:nonzero;stroke:none" />
      <path
         id="path2674"
         d="M 19003.717,79566.186 C 18425.51,78266.785 17855.013,76980.001 17299.935,75667.985 L 19003.717,76778.152 L 19003.717,79566.186"
         style="fill:none;stroke:#009900;stroke-width:269.82965088px;stroke-linejoin:round;stroke-dasharray:none;stroke-opacity:1" />
      <path
         id="path2676"
         d="M 19003.717,66988.496 L 19003.717,69776.53 C 18425.51,68477.129 17855.013,67190.345 17299.935,65878.329 L 19003.717,66988.496 z "
         style="fill:#009900;fill-opacity:1;fill-rule:nonzero;stroke:none" />
      <path
         id="path2678"
         d="M 19003.717,69776.53 C 18425.51,68477.129 17855.013,67190.345 17299.935,65878.329 L 19003.717,66988.496 L 19003.717,69776.53"
         style="fill:none;stroke:#009900;stroke-width:269.82965088px;stroke-linejoin:round;stroke-dasharray:none;stroke-opacity:1" />
      <path
         id="path2680"
         d="M 19003.717,54928.044 L 19003.717,57716.077 C 18425.51,56416.677 17855.013,55129.892 17299.935,53817.877 L 19003.717,54928.044 z "
         style="fill:#009900;fill-opacity:1;fill-rule:nonzero;stroke:none" />
      <path
         id="path2682"
         d="M 19003.717,57716.077 C 18425.51,56416.677 17855.013,55129.892 17299.935,53817.877 L 19003.717,54928.044 L 19003.717,57716.077"
         style="fill:none;stroke:#009900;stroke-width:269.82965088px;stroke-linejoin:round;stroke-dasharray:none;stroke-opacity:1" />
      <path
         id="path2684"
         d="M 15773.47,4541.593 C 16374.805,3784.6608 17477.252,2750.1868 19065.392,1412.94 C 14686.442,-529.85251 10592.741,-12.615536 6768.8694,2964.651 C 7015.5708,2989.882 7262.2722,3128.6529 7516.683,3368.3481 C 9328.3964,5121.9076 10947.374,5992.3796 12373.617,5967.1485 C 12766.797,5954.533 13136.849,5929.3019 13476.064,5853.6087 C 14470.579,5664.3757 15241.52,5235.4474 15773.47,4541.593 z "
         style="fill:#ff0000;fill-opacity:1;fill-rule:nonzero;stroke:none" />
      <path
         id="path2686"
         d="M 19065.392,1412.94 C 17477.252,2750.1868 16374.805,3784.6608 15773.47,4541.593 C 15241.52,5235.4474 14470.579,5664.3757 13476.064,5853.6087 C 13136.849,5929.3019 12766.797,5954.533 12373.617,5967.1485 C 7246.8534,6610.5409 6283.1761,9335.4966 9467.1659,14066.323 C 11340.555,14898.948 13653.38,15315.261 16390.224,15315.261 C 17430.995,14318.633 19150.196,15138.643 21516.987,17787.906 C 23567.692,17560.826 24438.857,16892.203 24107.352,15807.267 C 23768.137,14722.331 24492.823,14205.094 26273.698,14318.633 C 24122.77,12665.998 23243.897,11795.526 23621.658,11732.448 C 23999.42,11669.371 24585.336,11417.06 25363.987,11000.747 C 26134.929,10571.819 28069.993,9953.6579 31169.179,9158.8791 L 27183.41,9158.8791 C 26898.161,9133.6481 26705.426,9133.6481 26643.75,9133.6481 C 26643.75,9133.6481 26643.75,9133.6481 26628.331,9158.8791 C 26612.913,9133.6481 26612.913,9133.6481 26612.913,9108.417 C 26643.75,9083.1859 26666.879,9083.1859 26682.297,9057.9548 C 29357.466,8023.4809 30853.093,7266.5487 31184.598,6749.3118 C 31492.975,6257.3059 31084.375,6017.6107 29958.8,5992.3796 C 28817.806,5967.1485 28247.309,5929.3019 28255.019,5853.6087 C 28370.66,4352.3599 27661.394,3317.886 26150.348,2788.0335 C 26134.929,2788.0335 26134.929,2788.0335 26134.929,2788.0335 C 26127.219,2762.8024 26273.698,2649.2626 26612.913,2409.5674 L 26134.929,2750.1868 C 26451.015,2497.8761 26751.682,2258.1809 27044.64,2056.3324 C 27044.64,2056.3324 27044.64,2056.3324 27060.059,2056.3324 C 23837.522,-151.38643 21170.063,-353.23501 19065.392,1412.94 z M 25294.602,9020.1082 C 25294.602,9045.3393 25294.602,9057.9548 25294.602,9083.1859 C 25294.602,9108.417 25294.602,9133.6481 25294.602,9158.8791 C 25225.217,9777.0404 24747.233,10306.893 23852.941,10761.052 C 23428.923,10950.285 22981.777,11114.287 22496.083,11227.827 C 21856.201,11379.213 21146.935,11467.522 20383.702,11467.522 C 19026.845,11467.522 17870.432,11227.827 16906.755,10761.052 C 15981.625,10281.662 15503.641,9751.8093 15465.093,9108.417 C 15465.093,9083.1859 15465.093,9045.3393 15465.093,9020.1082 C 15465.093,8351.4848 15935.368,7771.1702 16906.755,7304.3953 C 17870.432,6812.3894 19026.845,6572.6943 20383.702,6597.9253 C 21732.851,6572.6943 22889.264,6812.3894 23852.941,7304.3953 C 24816.618,7771.1702 25294.602,8351.4848 25294.602,9020.1082 z "
         style="fill:#ff0000;fill-opacity:1;fill-rule:nonzero;stroke:none" />
      <path
         id="path2688"
         d="M 25294.602,9158.8791 L 25294.602,9020.1082 C 25294.602,8351.4848 24816.618,7771.1702 23852.941,7304.3953 C 22889.264,6812.3894 21732.851,6572.6943 20383.702,6597.9253 C 19026.845,6572.6943 17870.432,6812.3894 16906.755,7304.3953 C 15935.368,7771.1702 15465.093,8351.4848 15465.093,9020.1082 C 15465.093,9045.3393 15465.093,9083.1859 15465.093,9108.417 C 15503.641,9751.8093 15981.625,10281.662 16906.755,10761.052 C 17870.432,11227.827 19026.845,11467.522 20383.702,11467.522 C 21146.935,11467.522 21856.201,11379.213 22496.083,11227.827 C 22981.777,11114.287 23428.923,10950.285 23852.941,10761.052 C 24747.233,10306.893 25225.217,9777.0404 25294.602,9158.8791 z M 22873.845,10281.662 C 22750.494,10357.355 22611.724,10395.202 22496.083,10470.895 C 21879.33,10685.359 21162.354,10798.899 20345.155,10798.899 C 19350.64,10798.899 18510.314,10622.281 17816.466,10281.662 C 17145.747,9953.6579 16791.113,9575.1918 16767.985,9108.417 C 16767.985,9083.1859 16767.985,9057.9548 16767.985,9045.3393 C 16767.985,8528.1023 17122.618,8111.7896 17816.466,7771.1702 C 18510.314,7443.1662 19350.64,7266.5487 20345.155,7266.5487 C 21339.67,7266.5487 22179.997,7443.1662 22873.845,7771.1702 C 23583.111,8111.7896 23937.744,8528.1023 23937.744,9045.3393 C 23937.744,9057.9548 23937.744,9057.9548 23937.744,9083.1859 C 23937.744,9108.417 23937.744,9133.6481 23937.744,9158.8791 C 23868.36,9600.4229 23513.726,9978.889 22873.845,10281.662 z "
         style="fill:#ff0000;fill-opacity:1;fill-rule:nonzero;stroke:none" />
      <path
         id="path2690"
         d="M 22496.083,10470.895 C 22611.724,10395.202 22750.494,10357.355 22873.845,10281.662 C 23513.726,9978.889 23868.36,9600.4229 23937.744,9158.8791 L 23937.744,9045.3393 C 23937.744,8528.1023 23583.111,8111.7896 22873.845,7771.1702 C 22179.997,7443.1662 21339.67,7266.5487 20345.155,7266.5487 C 19350.64,7266.5487 18510.314,7443.1662 17816.466,7771.1702 C 17122.618,8111.7896 16767.985,8528.1023 16767.985,9045.3393 C 16767.985,9057.9548 16767.985,9083.1859 16767.985,9108.417 C 16791.113,9575.1918 17145.747,9953.6579 17816.466,10281.662 C 18510.314,10622.281 19350.64,10798.899 20345.155,10798.899 C 21162.354,10798.899 21879.33,10685.359 22496.083,10470.895 z M 22727.366,9020.1082 C 22727.366,9045.3393 22727.366,9083.1859 22727.366,9108.417 C 22681.109,9310.2656 22550.049,9486.8831 22318.767,9663.5006 C 22218.544,9726.5783 22126.031,9777.0404 22018.099,9814.887 C 21555.534,10067.198 21000.456,10180.738 20329.737,10180.738 C 19674.436,10180.738 19119.358,10067.198 18656.793,9814.887 C 18209.646,9600.4229 17962.945,9335.4966 17947.526,9045.3393 C 17947.526,9020.1082 17947.526,8994.8772 17947.526,8994.8772 C 17947.526,8666.8732 18178.809,8401.947 18656.793,8149.6363 C 19119.358,7909.9411 19674.436,7796.4012 20329.737,7796.4012 C 21000.456,7796.4012 21555.534,7909.9411 22018.099,8149.6363 C 22496.083,8401.947 22727.366,8666.8732 22727.366,8994.8772 C 22727.366,8994.8772 22727.366,8994.8772 22727.366,9020.1082 z "
         style="fill:#ff0000;fill-opacity:1;fill-rule:nonzero;stroke:none" />
      <path
         id="path2692"
         d="M 22727.366,9108.417 L 22727.366,8994.8772 C 22727.366,8666.8732 22496.083,8401.947 22018.099,8149.6363 C 21555.534,7909.9411 21000.456,7796.4012 20329.737,7796.4012 C 19674.436,7796.4012 19119.358,7909.9411 18656.793,8149.6363 C 18178.809,8401.947 17947.526,8666.8732 17947.526,8994.8772 C 17947.526,8994.8772 17947.526,9020.1082 17947.526,9045.3393 C 17962.945,9335.4966 18209.646,9600.4229 18656.793,9814.887 C 19119.358,10067.198 19674.436,10180.738 20329.737,10180.738 C 21000.456,10180.738 21555.534,10067.198 22018.099,9814.887 C 22126.031,9777.0404 22218.544,9726.5783 22318.767,9663.5006 C 22550.049,9486.8831 22681.109,9310.2656 22727.366,9108.417 z M 21555.534,9045.3393 C 21524.696,9158.8791 21463.021,9247.1879 21339.67,9335.4966 C 21293.414,9348.1122 21239.448,9398.5743 21185.482,9423.8054 C 20931.071,9537.3452 20630.404,9600.4229 20291.189,9600.4229 C 19951.975,9600.4229 19651.308,9537.3452 19404.606,9423.8054 C 19173.324,9310.2656 19049.973,9158.8791 19042.264,8994.8772 C 19011.426,8818.2597 19119.358,8666.8732 19366.059,8553.3334 C 19612.761,8439.7936 19905.719,8376.7159 20252.642,8376.7159 C 20591.857,8376.7159 20884.815,8439.7936 21146.935,8553.3334 C 21393.636,8666.8732 21524.696,8843.4907 21555.534,9045.3393 z "
         style="fill:#ff0000;fill-opacity:1;fill-rule:nonzero;stroke:none" />
      <path
         id="path2694"
         d="M 21339.67,9335.4966 C 21463.021,9247.1879 21524.696,9158.8791 21555.534,9045.3393 C 21524.696,8843.4907 21393.636,8666.8732 21146.935,8553.3334 C 20884.815,8439.7936 20591.857,8376.7159 20252.642,8376.7159 C 19905.719,8376.7159 19612.761,8439.7936 19366.059,8553.3334 C 19119.358,8666.8732 19011.426,8818.2597 19042.264,8994.8772 C 19049.973,9158.8791 19173.324,9310.2656 19404.606,9423.8054 C 19651.308,9537.3452 19951.975,9600.4229 20291.189,9600.4229 C 20630.404,9600.4229 20931.071,9537.3452 21185.482,9423.8054 C 21239.448,9398.5743 21293.414,9348.1122 21339.67,9335.4966 z "
         style="fill:#ff0000;fill-opacity:1;fill-rule:nonzero;stroke:none" />
      <path
         id="path2696"
         d="M 27060.059,2056.3324 C 27044.64,2056.3324 27044.64,2056.3324 27044.64,2056.3324 C 27060.059,2056.3324 27060.059,2056.3324 27075.478,2056.3324 L 27060.059,2056.3324 z "
         style="fill:#ff0000;fill-opacity:1;fill-rule:nonzero;stroke:none" />
      <path
         id="path2698"
         d="M 27075.478,2056.3324 C 27060.059,2056.3324 27060.059,2056.3324 27044.64,2056.3324 C 26751.682,2258.1809 26451.015,2497.8761 26134.929,2750.1868 L 26612.913,2409.5674 L 27075.478,2056.3324 z "
         style="fill:#ff0000;fill-opacity:1;fill-rule:nonzero;stroke:none" />
      <path
         id="path2700"
         d="M 27060.059,2056.3324 L 27075.478,2056.3324 L 26612.913,2409.5674 C 26273.698,2649.2626 26127.219,2762.8024 26134.929,2788.0335 C 26134.929,2788.0335 26134.929,2788.0335 26150.348,2788.0335 C 27661.394,3317.886 28370.66,4352.3599 28255.019,5853.6087 C 29565.62,2472.6451 31716.548,2472.6451 34692.383,5878.8398 C 35100.982,4213.589 35070.145,3015.1131 34592.161,2296.0276 C 32348.72,227.07965 29850.868,164.00197 27060.059,2056.3324 z "
         style="fill:#ff0000;fill-opacity:1;fill-rule:nonzero;stroke:none" />
      <path
         id="path2702"
         d="M 34592.161,2296.0276 C 35070.145,3015.1131 35100.982,4213.589 34692.383,5878.8398 C 35463.325,6749.3118 36280.523,7834.2479 37167.107,9158.8791 C 37359.842,9259.8034 37359.842,9549.9607 37182.525,10004.12 C 40050.429,11581.062 41939.237,13561.701 42848.948,15920.806 C 42347.836,8755.182 39587.864,4213.589 34592.161,2296.0276 z "
         style="fill:#ff0000;fill-opacity:1;fill-rule:nonzero;stroke:none" />
      <path
         id="path2704"
         d="M 34692.383,5878.8398 C 31716.548,2472.6451 29565.62,2472.6451 28255.019,5853.6087 C 28247.309,5929.3019 28817.806,5967.1485 29958.8,5992.3796 C 31084.375,6017.6107 31492.975,6257.3059 31184.598,6749.3118 C 30853.093,7266.5487 29357.466,8023.4809 26682.297,9057.9548 C 26666.879,9083.1859 26651.46,9108.417 26643.75,9133.6481 C 26705.426,9133.6481 26898.161,9133.6481 27183.41,9158.8791 L 31169.179,9158.8791 C 28069.993,9953.6579 26134.929,10571.819 25363.987,11000.747 C 24585.336,11417.06 23999.42,11669.371 23621.658,11732.448 C 23243.897,11795.526 24122.77,12665.998 26273.698,14318.633 C 28301.275,21875.339 25047.901,32295.772 16498.156,45542.085 C 17253.679,46652.252 18117.133,47358.722 19065.392,47674.111 C 19204.161,47711.957 19335.222,47762.419 19473.991,47787.65 C 19566.504,47800.266 19651.308,47800.266 19728.402,47825.497 C 25703.201,43662.37 29534.782,31362.222 31223.145,10912.439 C 33374.073,11404.445 35355.393,10824.13 37167.107,9158.8791 C 36280.523,7834.2479 35463.325,6749.3118 34692.383,5878.8398 z "
         style="fill:#ff0000;fill-opacity:1;fill-rule:nonzero;stroke:none" />
      <path
         id="path2706"
         d="M 7516.683,3368.3481 C 7262.2722,3128.6529 7015.5708,2989.882 6768.8694,2964.651 C 5234.6952,2762.8024 3777.6151,6597.9253 2405.3386,14444.789 L 2420.7574,14470.02 C 2652.04,14293.402 2898.7414,14179.862 3168.571,14142.016 C 10947.374,15870.344 15349.452,16274.041 16390.224,15315.261 C 13653.38,15315.261 11340.555,14898.948 9467.1659,14066.323 C 6283.1761,9335.4966 7246.8534,6610.5409 12373.617,5967.1485 C 10947.374,5992.3796 9328.3964,5121.9076 7516.683,3368.3481 z "
         style="fill:#ff0000;fill-opacity:1;fill-rule:nonzero;stroke:none" />
      <path
         id="path2708"
         d="M 3168.571,14142.016 C 2898.7414,14179.862 2652.04,14293.402 2420.7574,14470.02 C 1048.4809,15428.801 285.24848,18406.067 138.76953,23389.204 C 231.28255,23767.67 339.21441,24133.52 485.69337,24461.524 C 1403.1142,28776.038 2898.7414,32144.386 4964.8655,34516.106 L 4980.2843,34516.106 L 5751.2262,29495.123 C 6021.0558,28662.498 6252.3384,28246.185 6445.0739,28183.107 C 7223.7251,27892.95 7940.701,27539.715 8634.5487,27060.325 C 12296.522,24549.833 14879.178,20639.017 16390.224,15315.261 C 15349.452,16274.041 10947.374,15870.344 3168.571,14142.016 z "
         style="fill:#ff0000;fill-opacity:1;fill-rule:nonzero;stroke:none" />
      <path
         id="path2710"
         d="M 5766.645,29520.354 C 5766.645,29520.354 5766.645,29520.354 5751.2262,29495.123 C 6105.8594,32447.159 6745.7412,34919.804 7655.4526,36862.596 C 9112.5327,39978.634 12049.821,42867.591 16498.156,45542.085 C 25047.901,32295.772 28301.275,21875.339 26273.698,14318.633 C 24492.823,14205.094 23768.137,14722.331 24107.352,15807.267 C 24438.857,16892.203 23567.692,17560.826 21516.987,17787.906 C 23644.787,24310.138 22164.578,30289.902 17053.234,35739.813 C 13383.551,35008.112 10130.176,33569.941 7285.4005,31400.069 C 7030.9897,31210.836 6529.8775,30580.059 5766.645,29520.354 z "
         style="fill:#ff0000;fill-opacity:1;fill-rule:nonzero;stroke:none" />
      <path
         id="path2712"
         d="M 5751.2262,29495.123 C 5766.645,29520.354 5766.645,29520.354 5766.645,29520.354 C 6529.8775,30580.059 7030.9897,31210.836 7285.4005,31400.069 C 10130.176,33569.941 13383.551,35008.112 17053.234,35739.813 C 22164.578,30289.902 23644.787,24310.138 21516.987,17787.906 C 19150.196,15138.643 17430.995,14318.633 16390.224,15315.261 C 14879.178,20639.017 12296.522,24549.833 8634.5487,27060.325 C 7940.701,27539.715 7223.7251,27892.95 6445.0739,28183.107 C 6252.3384,28246.185 6021.0558,28662.498 5751.2262,29495.123 z "
         style="fill:#ff0000;fill-opacity:1;fill-rule:nonzero;stroke:none" />
      <path
         id="path2714"
         d="M 4964.8655,34541.338 L 4980.2843,34516.106 L 4964.8655,34516.106 C 4964.8655,34516.106 4964.8655,34516.106 4964.8655,34541.338 z "
         style="fill:#ff0000;fill-opacity:1;fill-rule:nonzero;stroke:none" />
      <path
         id="path2716"
         d="M 5751.2262,29495.123 L 4980.2843,34516.106 C 5782.0639,35449.656 6660.9376,36231.819 7655.4526,36862.596 C 6745.7412,34919.804 6105.8594,32447.159 5751.2262,29495.123 z "
         style="fill:#ff0000;fill-opacity:1;fill-rule:nonzero;stroke:none" />
      <path
         id="path2718"
         d="M 38269.553,15428.801 L 38362.066,15870.344 L 38269.553,15428.801 z "
         style="fill:#ff0000;fill-opacity:1;fill-rule:nonzero;stroke:none" />
      <path
         id="path2720"
         d="M 38362.066,15870.344 L 38269.553,15428.801 L 37182.525,10004.12 C 37359.842,9549.9607 37359.842,9259.8034 37167.107,9158.8791 C 35355.393,10824.13 33374.073,11404.445 31223.145,10912.439 C 29534.782,31362.222 25703.201,43662.37 19728.402,47825.497 C 19921.137,47850.728 20113.873,47875.959 20306.608,47875.959 C 20591.857,47875.959 20861.686,47850.728 21131.516,47787.65 C 21270.286,47762.419 21879.33,47383.953 22958.648,46652.252 C 23444.342,46311.633 24230.702,45542.085 25333.149,44318.378 C 27792.454,36673.363 30722.033,31387.454 34091.049,28422.803 C 37467.774,25458.152 39202.393,23010.738 39325.744,21105.792 C 39433.676,19188.23 39109.88,17447.286 38362.066,15870.344 z "
         style="fill:#ff0000;fill-opacity:1;fill-rule:nonzero;stroke:none" />
      <path
         id="path2722"
         d="M 42656.213,23969.518 C 43681.565,20929.174 43735.531,18229.45 42848.948,15920.806 C 41939.237,13561.701 40050.429,11581.062 37182.525,10004.12 L 38269.553,15428.801 L 38362.066,15870.344 C 39109.88,17447.286 39433.676,19188.23 39325.744,21105.792 C 39202.393,23010.738 37467.774,25458.152 34091.049,28422.803 C 30722.033,31387.454 27792.454,36673.363 25333.149,44318.378 L 25934.484,42665.743 C 26358.502,41492.498 26543.528,40924.799 26528.109,41038.339 C 26574.366,40924.799 26597.494,40836.49 26643.75,40748.181 L 26682.297,40659.873 C 27060.059,40420.177 27445.53,40193.098 27807.873,39953.403 C 29072.217,39082.931 30668.067,37884.455 32580.003,36320.128 C 37367.551,33847.483 40728.858,29734.818 42656.213,23969.518 z "
         style="fill:#ff0000;fill-opacity:1;fill-rule:nonzero;stroke:none" />
      <path
         id="path2724"
         d="M 27807.873,39953.403 C 27399.273,40281.406 26982.965,40634.641 26543.528,41013.108 L 26528.109,41038.339 C 26543.528,40924.799 26358.502,41492.498 25934.484,42665.743 L 25333.149,44318.378 C 28478.592,42892.822 30513.878,41442.036 31469.846,39953.403 C 32402.686,38464.769 32788.157,37241.062 32580.003,36320.128 C 30668.067,37884.455 29072.217,39082.931 27807.873,39953.403 z "
         style="fill:#ff0000;fill-opacity:1;fill-rule:nonzero;stroke:none" />
      <path
         id="path2726"
         d="M 19065.392,1412.94 C 17477.252,2750.1868 16374.805,3784.6608 15773.47,4541.593 C 15241.52,5235.4474 14470.579,5664.3757 13476.064,5853.6087 C 13136.849,5929.3019 12766.797,5954.533 12373.617,5967.1485"
         style="fill:none;stroke:#cc0000;stroke-width:269.82965088px;stroke-linejoin:round;stroke-dasharray:none;stroke-opacity:1" />
      <path
         id="path2728"
         d="M 27044.64,2056.3324 C 27044.64,2056.3324 27044.64,2056.3324 27060.059,2056.3324"
         style="fill:none;stroke:#cc0000;stroke-width:269.82965088px;stroke-linejoin:round;stroke-dasharray:none;stroke-opacity:1" />
      <path
         id="path2730"
         d="M 27075.478,2056.3324 C 27060.059,2056.3324 27060.059,2056.3324 27044.64,2056.3324"
         style="fill:none;stroke:#cc0000;stroke-width:269.82965088px;stroke-linejoin:round;stroke-dasharray:none;stroke-opacity:1" />
      <path
         id="path2732"
         d="M 27060.059,2056.3324 L 27075.478,2056.3324"
         style="fill:none;stroke:#cc0000;stroke-width:269.82965088px;stroke-linejoin:round;stroke-dasharray:none;stroke-opacity:1" />
      <path
         id="path2734"
         d="M 26612.913,2409.5674 L 27075.478,2056.3324"
         style="fill:none;stroke:#cc0000;stroke-width:269.82965088px;stroke-linejoin:round;stroke-dasharray:none;stroke-opacity:1" />
      <path
         id="path2736"
         d="M 28255.019,5853.6087 C 28370.66,4352.3599 27661.394,3317.886 26150.348,2788.0335 C 26134.929,2788.0335 26134.929,2788.0335 26134.929,2788.0335 C 26127.219,2762.8024 26273.698,2649.2626 26612.913,2409.5674"
         style="fill:none;stroke:#cc0000;stroke-width:269.82965088px;stroke-linejoin:round;stroke-dasharray:none;stroke-opacity:1" />
      <path
         id="path2738"
         d="M 27044.64,2056.3324 C 26751.682,2258.1809 26451.015,2497.8761 26134.929,2750.1868 L 26612.913,2409.5674"
         style="fill:none;stroke:#cc0000;stroke-width:269.82965088px;stroke-linejoin:round;stroke-dasharray:none;stroke-opacity:1" />
      <path
         id="path2740"
         d="M 27060.059,2056.3324 C 23837.522,-151.38643 21170.063,-353.23501 19065.392,1412.94"
         style="fill:none;stroke:#cc0000;stroke-width:269.82965088px;stroke-linejoin:round;stroke-dasharray:none;stroke-opacity:1" />
      <path
         id="path2742"
         d="M 34592.161,2296.0276 C 35070.145,3015.1131 35100.982,4213.589 34692.383,5878.8398"
         style="fill:none;stroke:#cc0000;stroke-width:269.82965088px;stroke-linejoin:round;stroke-dasharray:none;stroke-opacity:1" />
      <path
         id="path2744"
         d="M 27060.059,2056.3324 C 29850.868,164.00197 32348.72,227.07965 34592.161,2296.0276"
         style="fill:none;stroke:#cc0000;stroke-width:269.82965088px;stroke-linejoin:round;stroke-dasharray:none;stroke-opacity:1" />
      <path
         id="path2746"
         d="M 34692.383,5878.8398 C 31716.548,2472.6451 29565.62,2472.6451 28255.019,5853.6087"
         style="fill:none;stroke:#cc0000;stroke-width:269.82965088px;stroke-linejoin:round;stroke-dasharray:none;stroke-opacity:1" />
      <path
         id="path2748"
         d="M 12373.617,5967.1485 C 10947.374,5992.3796 9328.3964,5121.9076 7516.683,3368.3481 C 7262.2722,3128.6529 7015.5708,2989.882 6768.8694,2964.651"
         style="fill:none;stroke:#cc0000;stroke-width:269.82965088px;stroke-linejoin:round;stroke-dasharray:none;stroke-opacity:1" />
      <path
         id="path2750"
         d="M 16390.224,15315.261 C 15349.452,16274.041 10947.374,15870.344 3168.571,14142.016 C 2898.7414,14179.862 2652.04,14293.402 2420.7574,14470.02 C 1048.4809,15428.801 285.24848,18406.067 138.76953,23389.204 C 231.28255,23767.67 339.21441,24133.52 485.69337,24461.524 C 1403.1142,28776.038 2898.7414,32144.386 4964.8655,34516.106"
         style="fill:none;stroke:#cc0000;stroke-width:269.82965088px;stroke-linejoin:round;stroke-dasharray:none;stroke-opacity:1" />
      <path
         id="path2752"
         d="M 5751.2262,29495.123 C 5766.645,29520.354 5766.645,29520.354 5766.645,29520.354 C 6529.8775,30580.059 7030.9897,31210.836 7285.4005,31400.069 C 10130.176,33569.941 13383.551,35008.112 17053.234,35739.813"
         style="fill:none;stroke:#cc0000;stroke-width:269.82965088px;stroke-linejoin:round;stroke-dasharray:none;stroke-opacity:1" />
      <path
         id="path2754"
         d="M 4964.8655,34516.106 C 4964.8655,34516.106 4964.8655,34516.106 4964.8655,34541.338 L 4980.2843,34516.106"
         style="fill:none;stroke:#cc0000;stroke-width:269.82965088px;stroke-linejoin:round;stroke-dasharray:none;stroke-opacity:1" />
      <path
         id="path2756"
         d="M 4980.2843,34516.106 L 4964.8655,34516.106"
         style="fill:none;stroke:#cc0000;stroke-width:269.82965088px;stroke-linejoin:round;stroke-dasharray:none;stroke-opacity:1" />
      <path
         id="path2758"
         d="M 5751.2262,29495.123 L 4980.2843,34516.106"
         style="fill:none;stroke:#cc0000;stroke-width:269.82965088px;stroke-linejoin:round;stroke-dasharray:none;stroke-opacity:1" />
      <path
         id="path2760"
         d="M 7655.4526,36862.596 C 6745.7412,34919.804 6105.8594,32447.159 5751.2262,29495.123"
         style="fill:none;stroke:#cc0000;stroke-width:269.82965088px;stroke-linejoin:round;stroke-dasharray:none;stroke-opacity:1" />
      <path
         id="path2762"
         d="M 4980.2843,34516.106 C 5782.0639,35449.656 6660.9376,36231.819 7655.4526,36862.596"
         style="fill:none;stroke:#cc0000;stroke-width:269.82965088px;stroke-linejoin:round;stroke-dasharray:none;stroke-opacity:1" />
      <path
         id="path2764"
         d="M 16390.224,15315.261 C 14879.178,20639.017 12296.522,24549.833 8634.5487,27060.325 C 7940.701,27539.715 7223.7251,27892.95 6445.0739,28183.107 C 6252.3384,28246.185 6021.0558,28662.498 5751.2262,29495.123"
         style="fill:none;stroke:#cc0000;stroke-width:269.82965088px;stroke-linejoin:round;stroke-dasharray:none;stroke-opacity:1" />
      <path
         id="path2766"
         d="M 38362.066,15870.344 L 38269.553,15428.801"
         style="fill:none;stroke:#cc0000;stroke-width:269.82965088px;stroke-linejoin:round;stroke-dasharray:none;stroke-opacity:1" />
      <path
         id="path2768"
         d="M 42848.948,15920.806 C 43735.531,18229.45 43681.565,20929.174 42656.213,23969.518 C 40728.858,29734.818 37367.551,33847.483 32580.003,36320.128"
         style="fill:none;stroke:#cc0000;stroke-width:269.82965088px;stroke-linejoin:round;stroke-dasharray:none;stroke-opacity:1" />
      <path
         id="path2770"
         d="M 34091.049,28422.803 C 37467.774,25458.152 39202.393,23010.738 39325.744,21105.792 C 39433.676,19188.23 39109.88,17447.286 38362.066,15870.344"
         style="fill:none;stroke:#cc0000;stroke-width:269.82965088px;stroke-linejoin:round;stroke-dasharray:none;stroke-opacity:1" />
      <path
         id="path2772"
         d="M 38362.066,15870.344 L 38269.553,15428.801"
         style="fill:none;stroke:#cc0000;stroke-width:269.82965088px;stroke-linejoin:round;stroke-dasharray:none;stroke-opacity:1" />
      <path
         id="path2774"
         d="M 38269.553,15428.801 L 37182.525,10004.12"
         style="fill:none;stroke:#cc0000;stroke-width:269.82965088px;stroke-linejoin:round;stroke-dasharray:none;stroke-opacity:1" />
      <path
         id="path2776"
         d="M 42848.948,15920.806 C 41939.237,13561.701 40050.429,11581.062 37182.525,10004.12"
         style="fill:none;stroke:#cc0000;stroke-width:269.82965088px;stroke-linejoin:round;stroke-dasharray:none;stroke-opacity:1" />
      <path
         id="path2778"
         d="M 37182.525,10004.12 C 37359.842,9549.9607 37359.842,9259.8034 37167.107,9158.8791"
         style="fill:none;stroke:#cc0000;stroke-width:269.82965088px;stroke-linejoin:round;stroke-dasharray:none;stroke-opacity:1" />
      <path
         id="path2780"
         d="M 26682.297,9057.9548 C 29357.466,8023.4809 30853.093,7266.5487 31184.598,6749.3118 C 31492.975,6257.3059 31084.375,6017.6107 29958.8,5992.3796 C 28817.806,5967.1485 28247.309,5929.3019 28255.019,5853.6087"
         style="fill:none;stroke:#cc0000;stroke-width:269.82965088px;stroke-linejoin:round;stroke-dasharray:none;stroke-opacity:1" />
      <path
         id="path2782"
         d="M 25294.602,9083.1859 C 25294.602,9108.417 25294.602,9133.6481 25294.602,9158.8791 C 25225.217,9777.0404 24747.233,10306.893 23852.941,10761.052 C 23428.923,10950.285 22981.777,11114.287 22496.083,11227.827 C 21856.201,11379.213 21146.935,11467.522 20383.702,11467.522 C 19026.845,11467.522 17870.432,11227.827 16906.755,10761.052 C 15981.625,10281.662 15503.641,9751.8093 15465.093,9108.417 C 15465.093,9083.1859 15465.093,9045.3393 15465.093,9020.1082 C 15465.093,8351.4848 15935.368,7771.1702 16906.755,7304.3953 C 17870.432,6812.3894 19026.845,6572.6943 20383.702,6597.9253 C 21732.851,6572.6943 22889.264,6812.3894 23852.941,7304.3953 C 24816.618,7771.1702 25294.602,8351.4848 25294.602,9020.1082 C 25294.602,9045.3393 25294.602,9057.9548 25294.602,9083.1859"
         style="fill:none;stroke:#cc0000;stroke-width:269.82965088px;stroke-linejoin:round;stroke-dasharray:none;stroke-opacity:1" />
      <path
         id="path2784"
         d="M 26612.913,9108.417 C 26643.75,9083.1859 26666.879,9083.1859 26682.297,9057.9548"
         style="fill:none;stroke:#cc0000;stroke-width:269.82965088px;stroke-linejoin:round;stroke-dasharray:none;stroke-opacity:1" />
      <path
         id="path2786"
         d="M 26643.75,9133.6481 C 26651.46,9108.417 26666.879,9083.1859 26682.297,9057.9548"
         style="fill:none;stroke:#cc0000;stroke-width:269.82965088px;stroke-linejoin:round;stroke-dasharray:none;stroke-opacity:1" />
      <path
         id="path2788"
         d="M 16390.224,15315.261 C 17430.995,14318.633 19150.196,15138.643 21516.987,17787.906 C 23567.692,17560.826 24438.857,16892.203 24107.352,15807.267 C 23768.137,14722.331 24492.823,14205.094 26273.698,14318.633 C 24122.77,12665.998 23243.897,11795.526 23621.658,11732.448 C 23999.42,11669.371 24585.336,11417.06 25363.987,11000.747 C 26134.929,10571.819 28069.993,9953.6579 31169.179,9158.8791 L 27183.41,9158.8791 C 26898.161,9133.6481 26705.426,9133.6481 26643.75,9133.6481"
         style="fill:none;stroke:#cc0000;stroke-width:269.82965088px;stroke-linejoin:round;stroke-dasharray:none;stroke-opacity:1" />
      <path
         id="path2790"
         d="M 26643.75,9133.6481 L 26612.913,9108.417"
         style="fill:none;stroke:#cc0000;stroke-width:269.82965088px;stroke-linejoin:round;stroke-dasharray:none;stroke-opacity:1" />
      <path
         id="path2792"
         d="M 26643.75,9133.6481 C 26643.75,9133.6481 26643.75,9133.6481 26628.331,9158.8791 C 26612.913,9133.6481 26612.913,9133.6481 26612.913,9108.417"
         style="fill:none;stroke:#cc0000;stroke-width:269.82965088px;stroke-linejoin:round;stroke-dasharray:none;stroke-opacity:1" />
      <path
         id="path2794"
         d="M 22727.366,9108.417 C 22681.109,9310.2656 22550.049,9486.8831 22318.767,9663.5006 C 22218.544,9726.5783 22126.031,9777.0404 22018.099,9814.887 C 21555.534,10067.198 21000.456,10180.738 20329.737,10180.738 C 19674.436,10180.738 19119.358,10067.198 18656.793,9814.887 C 18209.646,9600.4229 17962.945,9335.4966 17947.526,9045.3393 C 17947.526,9020.1082 17947.526,8994.8772 17947.526,8994.8772 C 17947.526,8666.8732 18178.809,8401.947 18656.793,8149.6363 C 19119.358,7909.9411 19674.436,7796.4012 20329.737,7796.4012 C 21000.456,7796.4012 21555.534,7909.9411 22018.099,8149.6363 C 22496.083,8401.947 22727.366,8666.8732 22727.366,8994.8772 C 22727.366,8994.8772 22727.366,8994.8772 22727.366,9020.1082 C 22727.366,9045.3393 22727.366,9083.1859 22727.366,9108.417"
         style="fill:none;stroke:#cc0000;stroke-width:269.82965088px;stroke-linejoin:round;stroke-dasharray:none;stroke-opacity:1" />
      <path
         id="path2796"
         d="M 22873.845,10281.662 C 23513.726,9978.889 23868.36,9600.4229 23937.744,9158.8791 C 23937.744,9133.6481 23937.744,9108.417 23937.744,9083.1859 C 23937.744,9057.9548 23937.744,9057.9548 23937.744,9045.3393 C 23937.744,8528.1023 23583.111,8111.7896 22873.845,7771.1702 C 22179.997,7443.1662 21339.67,7266.5487 20345.155,7266.5487 C 19350.64,7266.5487 18510.314,7443.1662 17816.466,7771.1702 C 17122.618,8111.7896 16767.985,8528.1023 16767.985,9045.3393 C 16767.985,9057.9548 16767.985,9083.1859 16767.985,9108.417 C 16791.113,9575.1918 17145.747,9953.6579 17816.466,10281.662 C 18510.314,10622.281 19350.64,10798.899 20345.155,10798.899 C 21162.354,10798.899 21879.33,10685.359 22496.083,10470.895 C 22611.724,10395.202 22750.494,10357.355 22873.845,10281.662"
         style="fill:none;stroke:#cc0000;stroke-width:269.82965088px;stroke-linejoin:round;stroke-dasharray:none;stroke-opacity:1" />
      <path
         id="path2798"
         d="M 21555.534,9045.3393 C 21524.696,8843.4907 21393.636,8666.8732 21146.935,8553.3334 C 20884.815,8439.7936 20591.857,8376.7159 20252.642,8376.7159 C 19905.719,8376.7159 19612.761,8439.7936 19366.059,8553.3334 C 19119.358,8666.8732 19011.426,8818.2597 19042.264,8994.8772 C 19049.973,9158.8791 19173.324,9310.2656 19404.606,9423.8054 C 19651.308,9537.3452 19951.975,9600.4229 20291.189,9600.4229 C 20630.404,9600.4229 20931.071,9537.3452 21185.482,9423.8054 C 21239.448,9398.5743 21293.414,9348.1122 21339.67,9335.4966 C 21463.021,9247.1879 21524.696,9158.8791 21555.534,9045.3393"
         style="fill:none;stroke:#cc0000;stroke-width:269.82965088px;stroke-linejoin:round;stroke-dasharray:none;stroke-opacity:1" />
      <path
         id="path2800"
         d="M 7655.4526,36862.596 C 9112.5327,39978.634 12049.821,42867.591 16498.156,45542.085 C 17253.679,46652.252 18117.133,47358.722 19065.392,47674.111 C 19204.161,47711.957 19335.222,47762.419 19473.991,47787.65 C 19566.504,47800.266 19651.308,47800.266 19728.402,47825.497 C 19921.137,47850.728 20113.873,47875.959 20306.608,47875.959 C 20591.857,47875.959 20861.686,47850.728 21131.516,47787.65 C 21270.286,47762.419 21879.33,47383.953 22958.648,46652.252 C 23444.342,46311.633 24230.702,45542.085 25333.149,44318.378 C 28478.592,42892.822 30513.878,41442.036 31469.846,39953.403 C 32402.686,38464.769 32788.157,37241.062 32580.003,36320.128"
         style="fill:none;stroke:#cc0000;stroke-width:269.82965088px;stroke-linejoin:round;stroke-dasharray:none;stroke-opacity:1" />
      <path
         id="path2802"
         d="M 27807.873,39953.403 C 27399.273,40281.406 26982.965,40634.641 26543.528,41013.108 L 26528.109,41038.339 C 26574.366,40924.799 26597.494,40836.49 26643.75,40748.181 L 26682.297,40659.873 C 27060.059,40420.177 27445.53,40193.098 27807.873,39953.403"
         style="fill:none;stroke:#cc0000;stroke-width:269.82965088px;stroke-linejoin:round;stroke-dasharray:none;stroke-opacity:1" />
      <path
         id="path2804"
         d="M 26528.109,41038.339 C 26543.528,40924.799 26358.502,41492.498 25934.484,42665.743 L 25333.149,44318.378 C 27792.454,36673.363 30722.033,31387.454 34091.049,28422.803"
         style="fill:none;stroke:#cc0000;stroke-width:269.82965088px;stroke-linejoin:round;stroke-dasharray:none;stroke-opacity:1" />
      <path
         id="path2806"
         d="M 32580.003,36320.128 C 30668.067,37884.455 29072.217,39082.931 27807.873,39953.403"
         style="fill:none;stroke:#cc0000;stroke-width:269.82965088px;stroke-linejoin:round;stroke-dasharray:none;stroke-opacity:1" />
      <path
         id="path2808"
         d="M 31223.145,10912.439 C 29534.782,31362.222 25703.201,43662.37 19728.402,47825.497"
         style="fill:none;stroke:#cc0000;stroke-width:269.82965088px;stroke-linejoin:round;stroke-dasharray:none;stroke-opacity:1" />
      <path
         id="path2810"
         d="M 17053.234,35739.813 C 22164.578,30289.902 23644.787,24310.138 21516.987,17787.906"
         style="fill:none;stroke:#cc0000;stroke-width:269.82965088px;stroke-linejoin:round;stroke-dasharray:none;stroke-opacity:1" />
      <path
         id="path2812"
         d="M 26273.698,14318.633 C 28301.275,21875.339 25047.901,32295.772 16498.156,45542.085"
         style="fill:none;stroke:#cc0000;stroke-width:269.82965088px;stroke-linejoin:round;stroke-dasharray:none;stroke-opacity:1" />
      <path
         id="path2814"
         d="M 37167.107,9158.8791 C 35355.393,10824.13 33374.073,11404.445 31223.145,10912.439"
         style="fill:none;stroke:#cc0000;stroke-width:269.82965088px;stroke-linejoin:round;stroke-dasharray:none;stroke-opacity:1" />
      <path
         id="path2816"
         d="M 34592.161,2296.0276 C 39587.864,4213.589 42347.836,8755.182 42848.948,15920.806"
         style="fill:none;stroke:#cc0000;stroke-width:269.82965088px;stroke-linejoin:round;stroke-dasharray:none;stroke-opacity:1" />
      <path
         id="path2818"
         d="M 37167.107,9158.8791 C 36280.523,7834.2479 35463.325,6749.3118 34692.383,5878.8398"
         style="fill:none;stroke:#cc0000;stroke-width:269.82965088px;stroke-linejoin:round;stroke-dasharray:none;stroke-opacity:1" />
      <path
         id="path2820"
         d="M 12373.617,5967.1485 C 7246.8534,6610.5409 6283.1761,9335.4966 9467.1659,14066.323 C 11340.555,14898.948 13653.38,15315.261 16390.224,15315.261"
         style="fill:none;stroke:#cc0000;stroke-width:269.82965088px;stroke-linejoin:round;stroke-dasharray:none;stroke-opacity:1" />
      <path
         id="path2822"
         d="M 6768.8694,2964.651 C 5234.6952,2762.8024 3777.6151,6597.9253 2405.3386,14444.789"
         style="fill:none;stroke:#cc0000;stroke-width:269.82965088px;stroke-linejoin:round;stroke-dasharray:none;stroke-opacity:1" />
      <path
         id="path2824"
         d="M 6768.8694,2964.651 C 10592.741,-12.615536 14686.442,-529.85251 19065.392,1412.94"
         style="fill:none;stroke:#cc0000;stroke-width:269.82965088px;stroke-linejoin:round;stroke-dasharray:none;stroke-opacity:1" />
    </g>
  </g>
</svg>
