<?xml version="1.0" encoding="UTF-8" standalone="no"?>
<!-- Created with Inkscape (http://www.inkscape.org/) -->
<svg
   xmlns:dc="http://purl.org/dc/elements/1.1/"
   xmlns:cc="http://web.resource.org/cc/"
   xmlns:rdf="http://www.w3.org/1999/02/22-rdf-syntax-ns#"
   xmlns:svg="http://www.w3.org/2000/svg"
   xmlns="http://www.w3.org/2000/svg"
   xmlns:sodipodi="http://sodipodi.sourceforge.net/DTD/sodipodi-0.dtd"
   xmlns:inkscape="http://www.inkscape.org/namespaces/inkscape"
   width="640px"
   height="480px"
   id="svg5450"
   sodipodi:version="0.32"
   inkscape:version="0.44"
   sodipodi:docbase="D:\Users"
   sodipodi:docname="key2.svg">
  <defs
     id="defs5452" />
  <sodipodi:namedview
     id="base"
     pagecolor="#ffffff"
     bordercolor="#666666"
     borderopacity="1.0"
     inkscape:pageopacity="0.0"
     inkscape:pageshadow="2"
     inkscape:zoom="0.77472527"
     inkscape:cx="320"
     inkscape:cy="240"
     inkscape:current-layer="layer1"
     inkscape:document-units="px"
     inkscape:window-width="853"
     inkscape:window-height="573"
     inkscape:window-x="66"
     inkscape:window-y="87" />
  <metadata
     id="metadata5455">
    <rdf:RDF>
      <cc:Work
         rdf:about="">
        <dc:format>image/svg+xml</dc:format>
        <dc:type
           rdf:resource="http://purl.org/dc/dcmitype/StillImage" />
      </cc:Work>
    </rdf:RDF>
  </metadata>
  <g
     id="layer1"
     inkscape:label="Layer 1"
     inkscape:groupmode="layer">
    <g
       id="g5501">
      <path
         style="fill:#d0d0d0;fill-opacity:1"
         d="M 289.33333,375.66394 L 289.33333,365.86689 L 285.54117,362.16394 L 281.74901,358.46099 L 270.54117,358.46099 L 259.33333,358.46099 L 259.33333,354.46099 L 259.33333,350.46099 L 264.33333,350.46099 C 268.66666,350.46099 269.33333,350.19432 269.33333,348.46099 C 269.33333,346.90543 268.66666,346.46099 266.33333,346.46099 C 264.33333,346.46099 263.33333,345.96099 263.33333,344.96099 C 263.33333,344.12766 262.44444,343.46099 261.33333,343.46099 C 259.51111,343.46099 259.33333,342.79432 259.33333,335.96099 C 259.33333,329.12766 259.51111,328.46099 261.33333,328.46099 C 262.44444,328.46099 263.33333,327.79432 263.33333,326.96099 C 263.33333,325.96099 264.33333,325.46099 266.33333,325.46099 C 268.66666,325.46099 269.33333,325.01655 269.33333,323.46099 C 269.33333,321.72766 268.66666,321.46099 264.33333,321.46099 L 259.33333,321.46099 L 259.33333,317.46099 L 259.33333,313.46099 L 271.13716,313.46099 L 282.941,313.46099 L 286.13716,310.16338 L 289.33333,306.86578 L 289.33333,236.37792 L 289.33333,165.89006 L 270.83333,147.48795 L 252.33333,129.08583 L 252.33333,124.45491 C 252.33333,104.74776 271.0328,83.759156 291.46873,80.528669 C 313.55848,77.036751 331.65646,91.733064 340.52501,120.36441 L 342.50846,126.76784 L 322.4209,146.87335 L 302.33333,166.97886 L 302.33333,276.21992 L 302.33333,385.46099 L 295.83333,385.46099 L 289.33333,385.46099 L 289.33333,375.66394 z M 301.33333,275.71992 L 301.33333,166.97886 L 321.4209,146.87335 L 341.50846,126.76784 L 339.52501,120.36441 C 332.16471,96.602317 320.13703,83.977529 302.48157,81.481944 C 278.70339,78.120921 253.33333,100.27636 253.33333,124.40263 L 253.33333,128.98127 L 271.83333,147.46099 L 290.33333,165.94072 L 290.33333,275.20085 L 290.33333,384.46099 L 295.83333,384.46099 L 301.33333,384.46099 L 301.33333,275.71992 z M 280.42612,106.21099 C 288.28869,94.746841 296.58784,91.462321 304.39627,96.724426 C 307.85926,99.058134 313.24139,106.00145 313.30011,108.21099 C 313.32546,109.16482 309.17076,109.46099 295.76524,109.46099 L 278.19714,109.46099 L 280.42612,106.21099 z M 310.15825,104.24969 C 307.15672,98.812802 302.19025,95.460991 297.13579,95.460991 C 291.0011,95.460991 286.40531,98.542866 281.85067,105.71099 L 280.10331,108.46099 L 296.29324,108.46099 L 312.48318,108.46099 L 310.15825,104.24969 z M 289.33333,336.26482 L 289.33333,308.06866 L 285.83333,311.46099 L 282.33333,314.85332 L 282.33333,336.35955 L 282.33333,357.86578 L 285.5295,361.16338 C 287.28739,362.97707 288.86239,364.46099 289.0295,364.46099 C 289.19661,364.46099 289.33333,351.77271 289.33333,336.26482 z M 276.33333,335.96099 L 276.33333,314.46099 L 268.33333,314.46099 L 260.33333,314.46099 L 260.33333,317.46099 C 260.33333,320.39432 260.44444,320.46099 265.33333,320.46099 C 270.22222,320.46099 270.33333,320.52766 270.33333,323.46099 C 270.33333,326.12766 270,326.46099 267.33333,326.46099 C 265.33333,326.46099 264.33333,326.96099 264.33333,327.96099 C 264.33333,328.79432 263.44444,329.46099 262.33333,329.46099 C 260.53846,329.46099 260.33333,330.12766 260.33333,335.96099 C 260.33333,341.79432 260.53846,342.46099 262.33333,342.46099 C 263.44444,342.46099 264.33333,343.12766 264.33333,343.96099 C 264.33333,344.96099 265.33333,345.46099 267.33333,345.46099 C 270,345.46099 270.33333,345.79432 270.33333,348.46099 C 270.33333,351.39432 270.22222,351.46099 265.33333,351.46099 C 260.44444,351.46099 260.33333,351.52766 260.33333,354.46099 L 260.33333,357.46099 L 268.33333,357.46099 L 276.33333,357.46099 L 276.33333,335.96099 z M 281.33333,335.96099 C 281.33333,315.12766 281.27131,314.46099 279.33333,314.46099 C 277.39535,314.46099 277.33333,315.12766 277.33333,335.96099 C 277.33333,356.79432 277.39535,357.46099 279.33333,357.46099 C 281.27131,357.46099 281.33333,356.79432 281.33333,335.96099 z "
         id="path5517" />
      <path
         style="fill:#b9b9b9;fill-opacity:1"
         d="M 289.33333,375.66394 L 289.33333,365.86689 L 285.54117,362.16394 L 281.74901,358.46099 L 270.54117,358.46099 L 259.33333,358.46099 L 259.33333,354.46099 L 259.33333,350.46099 L 264.33333,350.46099 C 268.66666,350.46099 269.33333,350.19432 269.33333,348.46099 C 269.33333,346.90543 268.66666,346.46099 266.33333,346.46099 C 264.33333,346.46099 263.33333,345.96099 263.33333,344.96099 C 263.33333,344.12766 262.44444,343.46099 261.33333,343.46099 C 259.51111,343.46099 259.33333,342.79432 259.33333,335.96099 C 259.33333,329.12766 259.51111,328.46099 261.33333,328.46099 C 262.44444,328.46099 263.33333,327.79432 263.33333,326.96099 C 263.33333,325.96099 264.33333,325.46099 266.33333,325.46099 C 268.66666,325.46099 269.33333,325.01655 269.33333,323.46099 C 269.33333,321.72766 268.66666,321.46099 264.33333,321.46099 L 259.33333,321.46099 L 259.33333,317.46099 L 259.33333,313.46099 L 271.13716,313.46099 L 282.941,313.46099 L 286.13716,310.16338 L 289.33333,306.86578 L 289.33333,236.37792 L 289.33333,165.89006 L 270.83333,147.48795 L 252.33333,129.08583 L 252.33333,124.45491 C 252.33333,104.74776 271.0328,83.759156 291.46873,80.528669 C 313.55848,77.036751 331.65646,91.733064 340.52501,120.36441 L 342.50846,126.76784 L 322.4209,146.87335 L 302.33333,166.97886 L 302.33333,276.21992 L 302.33333,385.46099 L 295.83333,385.46099 L 289.33333,385.46099 L 289.33333,375.66394 z M 301.33333,275.71992 L 301.33333,166.97886 L 321.4209,146.87335 L 341.50846,126.76784 L 339.52501,120.36441 C 332.16471,96.602317 320.13703,83.977529 302.48157,81.481944 C 278.70339,78.120921 253.33333,100.27636 253.33333,124.40263 L 253.33333,128.98127 L 271.83333,147.46099 L 290.33333,165.94072 L 290.33333,275.20085 L 290.33333,384.46099 L 295.83333,384.46099 L 301.33333,384.46099 L 301.33333,275.71992 z M 280.42612,106.21099 C 288.28869,94.746841 296.58784,91.462321 304.39627,96.724426 C 307.85926,99.058134 313.24139,106.00145 313.30011,108.21099 C 313.32546,109.16482 309.17076,109.46099 295.76524,109.46099 L 278.19714,109.46099 L 280.42612,106.21099 z M 310.15825,104.24969 C 307.15672,98.812802 302.19025,95.460991 297.13579,95.460991 C 291.0011,95.460991 286.40531,98.542866 281.85067,105.71099 L 280.10331,108.46099 L 296.29324,108.46099 L 312.48318,108.46099 L 310.15825,104.24969 z M 289.33333,336.26482 L 289.33333,308.06866 L 285.83333,311.46099 L 282.33333,314.85332 L 282.33333,336.35955 L 282.33333,357.86578 L 285.5295,361.16338 C 287.28739,362.97707 288.86239,364.46099 289.0295,364.46099 C 289.19661,364.46099 289.33333,351.77271 289.33333,336.26482 z M 276.33333,335.96099 L 276.33333,314.46099 L 268.33333,314.46099 L 260.33333,314.46099 L 260.33333,317.46099 C 260.33333,320.39432 260.44444,320.46099 265.33333,320.46099 C 270.22222,320.46099 270.33333,320.52766 270.33333,323.46099 C 270.33333,326.12766 270,326.46099 267.33333,326.46099 C 265.33333,326.46099 264.33333,326.96099 264.33333,327.96099 C 264.33333,328.79432 263.44444,329.46099 262.33333,329.46099 C 260.53846,329.46099 260.33333,330.12766 260.33333,335.96099 C 260.33333,341.79432 260.53846,342.46099 262.33333,342.46099 C 263.44444,342.46099 264.33333,343.12766 264.33333,343.96099 C 264.33333,344.96099 265.33333,345.46099 267.33333,345.46099 C 270,345.46099 270.33333,345.79432 270.33333,348.46099 C 270.33333,351.39432 270.22222,351.46099 265.33333,351.46099 C 260.44444,351.46099 260.33333,351.52766 260.33333,354.46099 L 260.33333,357.46099 L 268.33333,357.46099 L 276.33333,357.46099 L 276.33333,335.96099 z M 281.33333,335.96099 C 281.33333,315.12766 281.27131,314.46099 279.33333,314.46099 C 277.39535,314.46099 277.33333,315.12766 277.33333,335.96099 C 277.33333,356.79432 277.39535,357.46099 279.33333,357.46099 C 281.27131,357.46099 281.33333,356.79432 281.33333,335.96099 z "
         id="path5515" />
      <path
         style="fill:#a3a3a3;fill-opacity:1"
         d="M 289.33333,375.66394 L 289.33333,365.86689 L 285.54117,362.16394 L 281.74901,358.46099 L 270.54117,358.46099 L 259.33333,358.46099 L 259.33333,354.46099 L 259.33333,350.46099 L 264.33333,350.46099 C 268.66666,350.46099 269.33333,350.19432 269.33333,348.46099 C 269.33333,346.90543 268.66666,346.46099 266.33333,346.46099 C 264.33333,346.46099 263.33333,345.96099 263.33333,344.96099 C 263.33333,344.12766 262.44444,343.46099 261.33333,343.46099 C 259.51111,343.46099 259.33333,342.79432 259.33333,335.96099 C 259.33333,329.12766 259.51111,328.46099 261.33333,328.46099 C 262.44444,328.46099 263.33333,327.79432 263.33333,326.96099 C 263.33333,325.96099 264.33333,325.46099 266.33333,325.46099 C 268.66666,325.46099 269.33333,325.01655 269.33333,323.46099 C 269.33333,321.72766 268.66666,321.46099 264.33333,321.46099 L 259.33333,321.46099 L 259.33333,317.46099 L 259.33333,313.46099 L 271.13716,313.46099 L 282.941,313.46099 L 286.13716,310.16338 L 289.33333,306.86578 L 289.33333,236.37792 L 289.33333,165.89006 L 270.83333,147.48795 L 252.33333,129.08583 L 252.33333,124.45491 C 252.33333,104.74776 271.0328,83.759156 291.46873,80.528669 C 313.55848,77.036751 331.65646,91.733064 340.52501,120.36441 L 342.50846,126.76784 L 322.4209,146.87335 L 302.33333,166.97886 L 302.33333,276.21992 L 302.33333,385.46099 L 295.83333,385.46099 L 289.33333,385.46099 L 289.33333,375.66394 z M 301.33333,275.71992 L 301.33333,166.97886 L 321.4209,146.87335 L 341.50846,126.76784 L 339.52501,120.36441 C 332.16471,96.602317 320.13703,83.977529 302.48157,81.481944 C 278.70339,78.120921 253.33333,100.27636 253.33333,124.40263 L 253.33333,128.98127 L 271.83333,147.46099 L 290.33333,165.94072 L 290.33333,275.20085 L 290.33333,384.46099 L 295.83333,384.46099 L 301.33333,384.46099 L 301.33333,275.71992 z M 280.42612,106.21099 C 288.28869,94.746841 296.58784,91.462321 304.39627,96.724426 C 307.85926,99.058134 313.24139,106.00145 313.30011,108.21099 C 313.32546,109.16482 309.17076,109.46099 295.76524,109.46099 L 278.19714,109.46099 L 280.42612,106.21099 z M 310.15825,104.24969 C 307.15672,98.812802 302.19025,95.460991 297.13579,95.460991 C 291.0011,95.460991 286.40531,98.542866 281.85067,105.71099 L 280.10331,108.46099 L 296.29324,108.46099 L 312.48318,108.46099 L 310.15825,104.24969 z M 289.33333,336.26482 L 289.33333,308.06866 L 285.83333,311.46099 L 282.33333,314.85332 L 282.33333,336.35955 L 282.33333,357.86578 L 285.5295,361.16338 C 287.28739,362.97707 288.86239,364.46099 289.0295,364.46099 C 289.19661,364.46099 289.33333,351.77271 289.33333,336.26482 z M 276.33333,335.96099 L 276.33333,314.46099 L 268.33333,314.46099 L 260.33333,314.46099 L 260.33333,317.46099 C 260.33333,320.39432 260.44444,320.46099 265.33333,320.46099 C 270.22222,320.46099 270.33333,320.52766 270.33333,323.46099 C 270.33333,326.12766 270,326.46099 267.33333,326.46099 C 265.33333,326.46099 264.33333,326.96099 264.33333,327.96099 C 264.33333,328.79432 263.44444,329.46099 262.33333,329.46099 C 260.53846,329.46099 260.33333,330.12766 260.33333,335.96099 C 260.33333,341.79432 260.53846,342.46099 262.33333,342.46099 C 263.44444,342.46099 264.33333,343.12766 264.33333,343.96099 C 264.33333,344.96099 265.33333,345.46099 267.33333,345.46099 C 270,345.46099 270.33333,345.79432 270.33333,348.46099 C 270.33333,351.39432 270.22222,351.46099 265.33333,351.46099 C 260.44444,351.46099 260.33333,351.52766 260.33333,354.46099 L 260.33333,357.46099 L 268.33333,357.46099 L 276.33333,357.46099 L 276.33333,335.96099 z M 281.33333,335.96099 C 281.33333,315.12766 281.27131,314.46099 279.33333,314.46099 C 277.39535,314.46099 277.33333,315.12766 277.33333,335.96099 C 277.33333,356.79432 277.39535,357.46099 279.33333,357.46099 C 281.27131,357.46099 281.33333,356.79432 281.33333,335.96099 z "
         id="path5513" />
      <path
         style="fill:#8c8c8c;fill-opacity:1"
         d="M 289.33333,375.66394 L 289.33333,365.86689 L 285.54117,362.16394 L 281.74901,358.46099 L 270.54117,358.46099 L 259.33333,358.46099 L 259.33333,354.46099 L 259.33333,350.46099 L 264.33333,350.46099 C 268.66666,350.46099 269.33333,350.19432 269.33333,348.46099 C 269.33333,346.90543 268.66666,346.46099 266.33333,346.46099 C 264.33333,346.46099 263.33333,345.96099 263.33333,344.96099 C 263.33333,344.12766 262.44444,343.46099 261.33333,343.46099 C 259.51111,343.46099 259.33333,342.79432 259.33333,335.96099 C 259.33333,329.12766 259.51111,328.46099 261.33333,328.46099 C 262.44444,328.46099 263.33333,327.79432 263.33333,326.96099 C 263.33333,325.96099 264.33333,325.46099 266.33333,325.46099 C 268.66666,325.46099 269.33333,325.01655 269.33333,323.46099 C 269.33333,321.72766 268.66666,321.46099 264.33333,321.46099 L 259.33333,321.46099 L 259.33333,317.46099 L 259.33333,313.46099 L 271.13716,313.46099 L 282.941,313.46099 L 286.13716,310.16338 L 289.33333,306.86578 L 289.33333,236.37792 L 289.33333,165.89006 L 270.83333,147.48795 L 252.33333,129.08583 L 252.33333,124.45491 C 252.33333,104.74776 271.0328,83.759156 291.46873,80.528669 C 313.55848,77.036751 331.65646,91.733064 340.52501,120.36441 L 342.50846,126.76784 L 322.4209,146.87335 L 302.33333,166.97886 L 302.33333,276.21992 L 302.33333,385.46099 L 295.83333,385.46099 L 289.33333,385.46099 L 289.33333,375.66394 z M 301.33333,275.71992 L 301.33333,166.97886 L 321.4209,146.87335 L 341.50846,126.76784 L 339.52501,120.36441 C 332.16471,96.602317 320.13703,83.977529 302.48157,81.481944 C 278.70339,78.120921 253.33333,100.27636 253.33333,124.40263 L 253.33333,128.98127 L 271.83333,147.46099 L 290.33333,165.94072 L 290.33333,275.20085 L 290.33333,384.46099 L 295.83333,384.46099 L 301.33333,384.46099 L 301.33333,275.71992 z M 280.42612,106.21099 C 288.28869,94.746841 296.58784,91.462321 304.39627,96.724426 C 307.85926,99.058134 313.24139,106.00145 313.30011,108.21099 C 313.32546,109.16482 309.17076,109.46099 295.76524,109.46099 L 278.19714,109.46099 L 280.42612,106.21099 z M 310.15825,104.24969 C 307.15672,98.812802 302.19025,95.460991 297.13579,95.460991 C 291.0011,95.460991 286.40531,98.542866 281.85067,105.71099 L 280.10331,108.46099 L 296.29324,108.46099 L 312.48318,108.46099 L 310.15825,104.24969 z M 289.33333,336.26482 L 289.33333,308.06866 L 285.83333,311.46099 L 282.33333,314.85332 L 282.33333,336.35955 L 282.33333,357.86578 L 285.5295,361.16338 C 287.28739,362.97707 288.86239,364.46099 289.0295,364.46099 C 289.19661,364.46099 289.33333,351.77271 289.33333,336.26482 z M 276.33333,335.96099 L 276.33333,314.46099 L 268.33333,314.46099 L 260.33333,314.46099 L 260.33333,317.46099 C 260.33333,320.39432 260.44444,320.46099 265.33333,320.46099 C 270.22222,320.46099 270.33333,320.52766 270.33333,323.46099 C 270.33333,326.12766 270,326.46099 267.33333,326.46099 C 265.33333,326.46099 264.33333,326.96099 264.33333,327.96099 C 264.33333,328.79432 263.44444,329.46099 262.33333,329.46099 C 260.53846,329.46099 260.33333,330.12766 260.33333,335.96099 C 260.33333,341.79432 260.53846,342.46099 262.33333,342.46099 C 263.44444,342.46099 264.33333,343.12766 264.33333,343.96099 C 264.33333,344.96099 265.33333,345.46099 267.33333,345.46099 C 270,345.46099 270.33333,345.79432 270.33333,348.46099 C 270.33333,351.39432 270.22222,351.46099 265.33333,351.46099 C 260.44444,351.46099 260.33333,351.52766 260.33333,354.46099 L 260.33333,357.46099 L 268.33333,357.46099 L 276.33333,357.46099 L 276.33333,335.96099 z M 281.33333,335.96099 C 281.33333,315.12766 281.27131,314.46099 279.33333,314.46099 C 277.39535,314.46099 277.33333,315.12766 277.33333,335.96099 C 277.33333,356.79432 277.39535,357.46099 279.33333,357.46099 C 281.27131,357.46099 281.33333,356.79432 281.33333,335.96099 z "
         id="path5511" />
      <path
         style="fill:#767676;fill-opacity:1"
         d="M 289.33333,375.66394 L 289.33333,365.86689 L 285.54117,362.16394 L 281.74901,358.46099 L 270.54117,358.46099 L 259.33333,358.46099 L 259.33333,354.46099 L 259.33333,350.46099 L 264.33333,350.46099 C 268.66666,350.46099 269.33333,350.19432 269.33333,348.46099 C 269.33333,346.90543 268.66666,346.46099 266.33333,346.46099 C 264.33333,346.46099 263.33333,345.96099 263.33333,344.96099 C 263.33333,344.12766 262.44444,343.46099 261.33333,343.46099 C 259.51111,343.46099 259.33333,342.79432 259.33333,335.96099 C 259.33333,329.12766 259.51111,328.46099 261.33333,328.46099 C 262.44444,328.46099 263.33333,327.79432 263.33333,326.96099 C 263.33333,325.96099 264.33333,325.46099 266.33333,325.46099 C 268.66666,325.46099 269.33333,325.01655 269.33333,323.46099 C 269.33333,321.72766 268.66666,321.46099 264.33333,321.46099 L 259.33333,321.46099 L 259.33333,317.46099 L 259.33333,313.46099 L 271.13716,313.46099 L 282.941,313.46099 L 286.13716,310.16338 L 289.33333,306.86578 L 289.33333,236.37792 L 289.33333,165.89006 L 270.83333,147.48795 L 252.33333,129.08583 L 252.33333,124.45491 C 252.33333,104.74776 271.0328,83.759156 291.46873,80.528669 C 313.55848,77.036751 331.65646,91.733064 340.52501,120.36441 L 342.50846,126.76784 L 322.4209,146.87335 L 302.33333,166.97886 L 302.33333,276.21992 L 302.33333,385.46099 L 295.83333,385.46099 L 289.33333,385.46099 L 289.33333,375.66394 z M 301.33333,275.71992 L 301.33333,166.97886 L 321.4209,146.87335 L 341.50846,126.76784 L 339.52501,120.36441 C 332.16471,96.602317 320.13703,83.977529 302.48157,81.481944 C 278.70339,78.120921 253.33333,100.27636 253.33333,124.40263 L 253.33333,128.98127 L 271.83333,147.46099 L 290.33333,165.94072 L 290.33333,275.20085 L 290.33333,384.46099 L 295.83333,384.46099 L 301.33333,384.46099 L 301.33333,275.71992 z M 280.42612,106.21099 C 288.28869,94.746841 296.58784,91.462321 304.39627,96.724426 C 307.85926,99.058134 313.24139,106.00145 313.30011,108.21099 C 313.32546,109.16482 309.17076,109.46099 295.76524,109.46099 L 278.19714,109.46099 L 280.42612,106.21099 z M 310.15825,104.24969 C 307.15672,98.812802 302.19025,95.460991 297.13579,95.460991 C 291.0011,95.460991 286.40531,98.542866 281.85067,105.71099 L 280.10331,108.46099 L 296.29324,108.46099 L 312.48318,108.46099 L 310.15825,104.24969 z M 289.33333,336.26482 L 289.33333,308.06866 L 285.83333,311.46099 L 282.33333,314.85332 L 282.33333,336.35955 L 282.33333,357.86578 L 285.5295,361.16338 C 287.28739,362.97707 288.86239,364.46099 289.0295,364.46099 C 289.19661,364.46099 289.33333,351.77271 289.33333,336.26482 z M 276.33333,335.96099 L 276.33333,314.46099 L 268.33333,314.46099 L 260.33333,314.46099 L 260.33333,317.46099 C 260.33333,320.39432 260.44444,320.46099 265.33333,320.46099 C 270.22222,320.46099 270.33333,320.52766 270.33333,323.46099 C 270.33333,326.12766 270,326.46099 267.33333,326.46099 C 265.33333,326.46099 264.33333,326.96099 264.33333,327.96099 C 264.33333,328.79432 263.44444,329.46099 262.33333,329.46099 C 260.53846,329.46099 260.33333,330.12766 260.33333,335.96099 C 260.33333,341.79432 260.53846,342.46099 262.33333,342.46099 C 263.44444,342.46099 264.33333,343.12766 264.33333,343.96099 C 264.33333,344.96099 265.33333,345.46099 267.33333,345.46099 C 270,345.46099 270.33333,345.79432 270.33333,348.46099 C 270.33333,351.39432 270.22222,351.46099 265.33333,351.46099 C 260.44444,351.46099 260.33333,351.52766 260.33333,354.46099 L 260.33333,357.46099 L 268.33333,357.46099 L 276.33333,357.46099 L 276.33333,335.96099 z M 281.33333,335.96099 C 281.33333,315.12766 281.27131,314.46099 279.33333,314.46099 C 277.39535,314.46099 277.33333,315.12766 277.33333,335.96099 C 277.33333,356.79432 277.39535,357.46099 279.33333,357.46099 C 281.27131,357.46099 281.33333,356.79432 281.33333,335.96099 z "
         id="path5509" />
      <path
         style="fill:#606060;fill-opacity:1"
         d="M 289.33333,375.66394 L 289.33333,365.86689 L 285.54117,362.16394 L 281.74901,358.46099 L 270.54117,358.46099 L 259.33333,358.46099 L 259.33333,354.46099 L 259.33333,350.46099 L 264.33333,350.46099 C 268.66666,350.46099 269.33333,350.19432 269.33333,348.46099 C 269.33333,346.90543 268.66666,346.46099 266.33333,346.46099 C 264.33333,346.46099 263.33333,345.96099 263.33333,344.96099 C 263.33333,344.12766 262.44444,343.46099 261.33333,343.46099 C 259.51111,343.46099 259.33333,342.79432 259.33333,335.96099 C 259.33333,329.12766 259.51111,328.46099 261.33333,328.46099 C 262.44444,328.46099 263.33333,327.79432 263.33333,326.96099 C 263.33333,325.96099 264.33333,325.46099 266.33333,325.46099 C 268.66666,325.46099 269.33333,325.01655 269.33333,323.46099 C 269.33333,321.72766 268.66666,321.46099 264.33333,321.46099 L 259.33333,321.46099 L 259.33333,317.46099 L 259.33333,313.46099 L 271.13716,313.46099 L 282.941,313.46099 L 286.13716,310.16338 L 289.33333,306.86578 L 289.33333,236.37792 L 289.33333,165.89006 L 270.83333,147.48795 L 252.33333,129.08583 L 252.33333,124.45491 C 252.33333,104.74776 271.0328,83.759156 291.46873,80.528669 C 313.55848,77.036751 331.65646,91.733064 340.52501,120.36441 L 342.50846,126.76784 L 322.4209,146.87335 L 302.33333,166.97886 L 302.33333,276.21992 L 302.33333,385.46099 L 295.83333,385.46099 L 289.33333,385.46099 L 289.33333,375.66394 z M 301.33333,275.71992 L 301.33333,166.97886 L 321.4209,146.87335 L 341.50846,126.76784 L 339.52501,120.36441 C 332.16471,96.602317 320.13703,83.977529 302.48157,81.481944 C 278.70339,78.120921 253.33333,100.27636 253.33333,124.40263 L 253.33333,128.98127 L 271.83333,147.46099 L 290.33333,165.94072 L 290.33333,275.20085 L 290.33333,384.46099 L 295.83333,384.46099 L 301.33333,384.46099 L 301.33333,275.71992 z M 280.42612,106.21099 C 288.28869,94.746841 296.58784,91.462321 304.39627,96.724426 C 307.85926,99.058134 313.24139,106.00145 313.30011,108.21099 C 313.32546,109.16482 309.17076,109.46099 295.76524,109.46099 L 278.19714,109.46099 L 280.42612,106.21099 z M 310.15825,104.24969 C 307.15672,98.812802 302.19025,95.460991 297.13579,95.460991 C 291.0011,95.460991 286.40531,98.542866 281.85067,105.71099 L 280.10331,108.46099 L 296.29324,108.46099 L 312.48318,108.46099 L 310.15825,104.24969 z M 289.33333,336.26482 L 289.33333,308.06866 L 285.83333,311.46099 L 282.33333,314.85332 L 282.33333,336.35955 L 282.33333,357.86578 L 285.5295,361.16338 C 287.28739,362.97707 288.86239,364.46099 289.0295,364.46099 C 289.19661,364.46099 289.33333,351.77271 289.33333,336.26482 z M 276.33333,335.96099 L 276.33333,314.46099 L 268.33333,314.46099 L 260.33333,314.46099 L 260.33333,317.46099 C 260.33333,320.39432 260.44444,320.46099 265.33333,320.46099 C 270.22222,320.46099 270.33333,320.52766 270.33333,323.46099 C 270.33333,326.12766 270,326.46099 267.33333,326.46099 C 265.33333,326.46099 264.33333,326.96099 264.33333,327.96099 C 264.33333,328.79432 263.44444,329.46099 262.33333,329.46099 C 260.53846,329.46099 260.33333,330.12766 260.33333,335.96099 C 260.33333,341.79432 260.53846,342.46099 262.33333,342.46099 C 263.44444,342.46099 264.33333,343.12766 264.33333,343.96099 C 264.33333,344.96099 265.33333,345.46099 267.33333,345.46099 C 270,345.46099 270.33333,345.79432 270.33333,348.46099 C 270.33333,351.39432 270.22222,351.46099 265.33333,351.46099 C 260.44444,351.46099 260.33333,351.52766 260.33333,354.46099 L 260.33333,357.46099 L 268.33333,357.46099 L 276.33333,357.46099 L 276.33333,335.96099 z M 281.33333,335.96099 C 281.33333,315.12766 281.27131,314.46099 279.33333,314.46099 C 277.39535,314.46099 277.33333,315.12766 277.33333,335.96099 C 277.33333,356.79432 277.39535,357.46099 279.33333,357.46099 C 281.27131,357.46099 281.33333,356.79432 281.33333,335.96099 z "
         id="path5507" />
      <path
         style="fill:#494949;fill-opacity:1"
         d="M 289.33333,375.66394 L 289.33333,365.86689 L 285.54117,362.16394 L 281.74901,358.46099 L 270.54117,358.46099 L 259.33333,358.46099 L 259.33333,354.46099 L 259.33333,350.46099 L 264.33333,350.46099 C 268.66666,350.46099 269.33333,350.19432 269.33333,348.46099 C 269.33333,346.90543 268.66666,346.46099 266.33333,346.46099 C 264.33333,346.46099 263.33333,345.96099 263.33333,344.96099 C 263.33333,344.12766 262.44444,343.46099 261.33333,343.46099 C 259.51111,343.46099 259.33333,342.79432 259.33333,335.96099 C 259.33333,329.12766 259.51111,328.46099 261.33333,328.46099 C 262.44444,328.46099 263.33333,327.79432 263.33333,326.96099 C 263.33333,325.96099 264.33333,325.46099 266.33333,325.46099 C 268.66666,325.46099 269.33333,325.01655 269.33333,323.46099 C 269.33333,321.72766 268.66666,321.46099 264.33333,321.46099 L 259.33333,321.46099 L 259.33333,317.46099 L 259.33333,313.46099 L 271.13716,313.46099 L 282.941,313.46099 L 286.13716,310.16338 L 289.33333,306.86578 L 289.33333,236.37792 L 289.33333,165.89006 L 270.83333,147.48795 L 252.33333,129.08583 L 252.33333,124.45491 C 252.33333,104.74776 271.0328,83.759156 291.46873,80.528669 C 313.55848,77.036751 331.65646,91.733064 340.52501,120.36441 L 342.50846,126.76784 L 322.4209,146.87335 L 302.33333,166.97886 L 302.33333,276.21992 L 302.33333,385.46099 L 295.83333,385.46099 L 289.33333,385.46099 L 289.33333,375.66394 z M 301.33333,275.71992 L 301.33333,166.97886 L 321.4209,146.87335 L 341.50846,126.76784 L 339.52501,120.36441 C 332.16471,96.602317 320.13703,83.977529 302.48157,81.481944 C 278.70339,78.120921 253.33333,100.27636 253.33333,124.40263 L 253.33333,128.98127 L 271.83333,147.46099 L 290.33333,165.94072 L 290.33333,275.20085 L 290.33333,384.46099 L 295.83333,384.46099 L 301.33333,384.46099 L 301.33333,275.71992 z M 280.42612,106.21099 C 288.28869,94.746841 296.58784,91.462321 304.39627,96.724426 C 307.85926,99.058134 313.24139,106.00145 313.30011,108.21099 C 313.32546,109.16482 309.17076,109.46099 295.76524,109.46099 L 278.19714,109.46099 L 280.42612,106.21099 z M 310.15825,104.24969 C 307.15672,98.812802 302.19025,95.460991 297.13579,95.460991 C 291.0011,95.460991 286.40531,98.542866 281.85067,105.71099 L 280.10331,108.46099 L 296.29324,108.46099 L 312.48318,108.46099 L 310.15825,104.24969 z M 289.33333,336.26482 L 289.33333,308.06866 L 285.83333,311.46099 L 282.33333,314.85332 L 282.33333,336.35955 L 282.33333,357.86578 L 285.5295,361.16338 C 287.28739,362.97707 288.86239,364.46099 289.0295,364.46099 C 289.19661,364.46099 289.33333,351.77271 289.33333,336.26482 z M 276.33333,335.96099 L 276.33333,314.46099 L 268.33333,314.46099 L 260.33333,314.46099 L 260.33333,317.46099 C 260.33333,320.39432 260.44444,320.46099 265.33333,320.46099 C 270.22222,320.46099 270.33333,320.52766 270.33333,323.46099 C 270.33333,326.12766 270,326.46099 267.33333,326.46099 C 265.33333,326.46099 264.33333,326.96099 264.33333,327.96099 C 264.33333,328.79432 263.44444,329.46099 262.33333,329.46099 C 260.53846,329.46099 260.33333,330.12766 260.33333,335.96099 C 260.33333,341.79432 260.53846,342.46099 262.33333,342.46099 C 263.44444,342.46099 264.33333,343.12766 264.33333,343.96099 C 264.33333,344.96099 265.33333,345.46099 267.33333,345.46099 C 270,345.46099 270.33333,345.79432 270.33333,348.46099 C 270.33333,351.39432 270.22222,351.46099 265.33333,351.46099 C 260.44444,351.46099 260.33333,351.52766 260.33333,354.46099 L 260.33333,357.46099 L 268.33333,357.46099 L 276.33333,357.46099 L 276.33333,335.96099 z M 281.33333,335.96099 C 281.33333,315.12766 281.27131,314.46099 279.33333,314.46099 C 277.39535,314.46099 277.33333,315.12766 277.33333,335.96099 C 277.33333,356.79432 277.39535,357.46099 279.33333,357.46099 C 281.27131,357.46099 281.33333,356.79432 281.33333,335.96099 z "
         id="path5505" />
      <path
         style="fill:#333;fill-opacity:1"
         d="M 289.33333,375.66394 L 289.33333,365.86689 L 285.54117,362.16394 L 281.74901,358.46099 L 270.54117,358.46099 L 259.33333,358.46099 L 259.33333,354.46099 L 259.33333,350.46099 L 264.33333,350.46099 C 268.66666,350.46099 269.33333,350.19432 269.33333,348.46099 C 269.33333,346.90543 268.66666,346.46099 266.33333,346.46099 C 264.33333,346.46099 263.33333,345.96099 263.33333,344.96099 C 263.33333,344.12766 262.44444,343.46099 261.33333,343.46099 C 259.51111,343.46099 259.33333,342.79432 259.33333,335.96099 C 259.33333,329.12766 259.51111,328.46099 261.33333,328.46099 C 262.44444,328.46099 263.33333,327.79432 263.33333,326.96099 C 263.33333,325.96099 264.33333,325.46099 266.33333,325.46099 C 268.66666,325.46099 269.33333,325.01655 269.33333,323.46099 C 269.33333,321.72766 268.66666,321.46099 264.33333,321.46099 L 259.33333,321.46099 L 259.33333,317.46099 L 259.33333,313.46099 L 271.13716,313.46099 L 282.941,313.46099 L 286.13716,310.16338 L 289.33333,306.86578 L 289.33333,236.37792 L 289.33333,165.89006 L 270.83333,147.48795 L 252.33333,129.08583 L 252.33333,124.45491 C 252.33333,104.74776 271.0328,83.759156 291.46873,80.528669 C 313.55848,77.036751 331.65646,91.733064 340.52501,120.36441 L 342.50846,126.76784 L 322.4209,146.87335 L 302.33333,166.97886 L 302.33333,276.21992 L 302.33333,385.46099 L 295.83333,385.46099 L 289.33333,385.46099 L 289.33333,375.66394 z M 301.33333,275.71992 L 301.33333,166.97886 L 321.4209,146.87335 L 341.50846,126.76784 L 339.52501,120.36441 C 332.16471,96.602317 320.13703,83.977529 302.48157,81.481944 C 278.70339,78.120921 253.33333,100.27636 253.33333,124.40263 L 253.33333,128.98127 L 271.83333,147.46099 L 290.33333,165.94072 L 290.33333,275.20085 L 290.33333,384.46099 L 295.83333,384.46099 L 301.33333,384.46099 L 301.33333,275.71992 z M 280.42612,106.21099 C 288.28869,94.746841 296.58784,91.462321 304.39627,96.724426 C 307.85926,99.058134 313.24139,106.00145 313.30011,108.21099 C 313.32546,109.16482 309.17076,109.46099 295.76524,109.46099 L 278.19714,109.46099 L 280.42612,106.21099 z M 310.15825,104.24969 C 307.15672,98.812802 302.19025,95.460991 297.13579,95.460991 C 291.0011,95.460991 286.40531,98.542866 281.85067,105.71099 L 280.10331,108.46099 L 296.29324,108.46099 L 312.48318,108.46099 L 310.15825,104.24969 z M 289.33333,336.26482 L 289.33333,308.06866 L 285.83333,311.46099 L 282.33333,314.85332 L 282.33333,336.35955 L 282.33333,357.86578 L 285.5295,361.16338 C 287.28739,362.97707 288.86239,364.46099 289.0295,364.46099 C 289.19661,364.46099 289.33333,351.77271 289.33333,336.26482 z M 276.33333,335.96099 L 276.33333,314.46099 L 268.33333,314.46099 L 260.33333,314.46099 L 260.33333,317.46099 C 260.33333,320.39432 260.44444,320.46099 265.33333,320.46099 C 270.22222,320.46099 270.33333,320.52766 270.33333,323.46099 C 270.33333,326.12766 270,326.46099 267.33333,326.46099 C 265.33333,326.46099 264.33333,326.96099 264.33333,327.96099 C 264.33333,328.79432 263.44444,329.46099 262.33333,329.46099 C 260.53846,329.46099 260.33333,330.12766 260.33333,335.96099 C 260.33333,341.79432 260.53846,342.46099 262.33333,342.46099 C 263.44444,342.46099 264.33333,343.12766 264.33333,343.96099 C 264.33333,344.96099 265.33333,345.46099 267.33333,345.46099 C 270,345.46099 270.33333,345.79432 270.33333,348.46099 C 270.33333,351.39432 270.22222,351.46099 265.33333,351.46099 C 260.44444,351.46099 260.33333,351.52766 260.33333,354.46099 L 260.33333,357.46099 L 268.33333,357.46099 L 276.33333,357.46099 L 276.33333,335.96099 z M 281.33333,335.96099 C 281.33333,315.12766 281.27131,314.46099 279.33333,314.46099 C 277.39535,314.46099 277.33333,315.12766 277.33333,335.96099 C 277.33333,356.79432 277.39535,357.46099 279.33333,357.46099 C 281.27131,357.46099 281.33333,356.79432 281.33333,335.96099 z "
         id="path5503" />
    </g>
  </g>
</svg>
